<svg width="479" height="463" viewBox="0 0 479 463" fill="none" xmlns="http://www.w3.org/2000/svg">
<path d="M25 161.172V438H454V161.172L239.5 30L25 161.172Z" stroke="#F7F7F7" stroke-width="50"/>
<path d="M259.159 144C280.965 144 299.137 149.26 313.674 159.779C333.225 173.805 343 195.721 343 225.526C343 247.066 336.984 265.476 324.953 280.754C311.92 297.034 293.748 305.174 270.438 305.174C258.156 305.174 247.003 302.294 236.977 296.533C226.951 290.522 221.061 280.378 219.306 266.102L222.69 264.975C225.447 275.745 231.838 283.259 241.864 287.517C248.632 290.522 254.647 292.025 259.911 292.025C280.464 292.025 295.377 284.01 304.651 267.98C311.419 256.208 314.802 242.182 314.802 225.902C314.802 199.854 307.534 181.069 292.996 169.547C281.968 160.531 267.932 156.022 250.888 156.022C246.877 156.022 243.368 156.273 240.36 156.774C237.603 157.024 225.071 159.028 202.764 162.785V385.574C203.014 392.336 205.521 397.972 210.283 402.48C215.045 406.989 220.559 409.243 226.826 409.243H231.713V413H149.376V409.243H154.264C160.53 409.243 166.044 406.989 170.806 402.48C175.568 397.972 178.075 392.336 178.326 385.574V182.321C178.326 175.809 176.446 170.8 172.686 167.293C168.926 163.536 164.039 161.658 158.023 161.658C156.77 161.658 155.517 161.783 154.264 162.033L149.752 162.409L149 158.652C162.034 157.4 179.453 155.02 201.26 151.514C223.317 147.757 236.977 145.628 242.24 145.127C247.504 144.376 253.143 144 259.159 144Z" fill="url(#paint0_linear_350_501)"/>
<path fill-rule="evenodd" clip-rule="evenodd" d="M179 343.635H151.887C147.476 343.473 143.801 341.86 140.861 338.794C137.92 335.729 136.45 332.179 136.45 328.146V325H134V378H136.45V374.854C136.45 370.82 137.92 367.271 140.861 364.205C143.801 361.14 147.476 359.527 151.887 359.365H179V343.635Z" fill="#BCBCBC"/>
<path fill-rule="evenodd" clip-rule="evenodd" d="M202 343.635H229.113C233.524 343.473 237.199 341.86 240.139 338.794C243.08 335.729 244.55 332.179 244.55 328.146V325H247V378H244.55V374.854C244.55 370.82 243.08 367.271 240.139 364.205C237.199 361.14 233.524 359.527 229.113 359.365H202V343.635Z" fill="#BCBCBC"/>
<path fill-rule="evenodd" clip-rule="evenodd" d="M179 283.635H151.887C147.476 283.473 143.801 281.86 140.861 278.794C137.92 275.729 136.45 272.179 136.45 268.146V265H134V318H136.45V314.854C136.45 310.82 137.92 307.271 140.861 304.205C143.801 301.14 147.476 299.527 151.887 299.365H179V283.635Z" fill="#888888"/>
<defs>
<linearGradient id="paint0_linear_350_501" x1="246" y1="144" x2="246" y2="413" gradientUnits="userSpaceOnUse">
<stop/>
<stop offset="1" stop-color="#F6F6F6"/>
</linearGradient>
</defs>
</svg>
