<svg width="20" height="20" viewBox="0 0 20 20" fill="none" xmlns="http://www.w3.org/2000/svg">
<path d="M6.66699 17.5H8.33366V15H13.3337V13.3333H8.33366V11.6667H12.0837C14.3812 11.6667 16.2503 9.7975 16.2503 7.5C16.2503 5.2025 14.3812 3.33334 12.0837 3.33334H7.50033C7.27931 3.33334 7.06735 3.42113 6.91107 3.57741C6.75479 3.73369 6.66699 3.94566 6.66699 4.16667V10H4.16699V11.6667H6.66699V13.3333H4.16699V15H6.66699V17.5ZM8.33366 5H12.0837C13.462 5 14.5837 6.12167 14.5837 7.5C14.5837 8.87834 13.462 10 12.0837 10H8.33366V5Z" fill="black"/>
</svg>
