<svg width="20" height="20" viewBox="0 0 20 20" fill="none" xmlns="http://www.w3.org/2000/svg">
<g clip-path="url(#clip0_347_462)">
<path d="M10.0002 18.75C7.66266 18.75 5.46579 17.84 3.81329 16.1869C1.11204 13.4863 0.470163 9.39063 2.21704 5.99688C2.37516 5.69 2.75141 5.56938 3.05891 5.72688C3.36641 5.88438 3.48704 6.26125 3.32891 6.56875C1.83141 9.4775 2.38141 12.9875 4.69704 15.3031C6.11329 16.72 7.99641 17.5 10.0002 17.5C12.0033 17.5 13.887 16.72 15.3033 15.3031C16.7195 13.8863 17.5002 12.0031 17.5002 10C17.5002 7.99625 16.7202 6.11312 15.3033 4.69687C13.8864 3.28062 12.0039 2.5 10.0002 2.5C7.99641 2.5 6.11329 3.28062 4.69704 4.69687C4.45266 4.94125 4.05766 4.94125 3.81329 4.69687C3.56891 4.4525 3.56891 4.0575 3.81329 3.81312C5.46579 2.16062 7.66266 1.25 10.0002 1.25C12.3377 1.25 14.5352 2.16062 16.187 3.81312C17.8402 5.46562 18.7502 7.6625 18.7502 10C18.7502 12.3369 17.8402 14.5344 16.187 16.1869C14.5352 17.84 12.3377 18.75 10.0002 18.75Z" fill="black"/>
<path d="M13.1244 13.125C12.9875 13.125 12.85 13.0806 12.7344 12.9881L9.60938 10.4881C9.46125 10.3694 9.375 10.19 9.375 10V5C9.375 4.655 9.655 4.375 10 4.375C10.345 4.375 10.625 4.655 10.625 5V9.7L13.5156 12.0119C13.785 12.2281 13.8288 12.6213 13.6131 12.8906C13.4894 13.0444 13.3081 13.125 13.1244 13.125Z" fill="black"/>
</g>
<defs>
<clipPath id="clip0_347_462">
<rect width="20" height="20" fill="white"/>
</clipPath>
</defs>
</svg>
