<svg width="71" height="44" viewBox="0 0 71 44" fill="none" xmlns="http://www.w3.org/2000/svg">
<path fill-rule="evenodd" clip-rule="evenodd" d="M19.3104 6.68799L18.248 8.81279L23.2486 11.313H28.2815V8.93803H23.8098L19.3104 6.68799Z" fill="#099278"/>
<path fill-rule="evenodd" clip-rule="evenodd" d="M32.0104 6.56299C30.0261 6.56299 28.171 7.55569 27.0702 9.20703L27.0939 9.17369L21.3792 17.1522C21.2527 17.3301 21.1776 17.5395 21.1622 17.7573C21.1467 17.975 21.1915 18.1927 21.2916 18.3867C21.3917 18.5807 21.5433 18.7433 21.7298 18.8569C21.9162 18.9705 22.1303 19.0309 22.3487 19.0309H28.2026C29.3931 19.0309 30.5065 18.4345 31.1668 17.4442L32.1315 15.9972C32.3524 15.6659 32.7217 15.4684 33.1195 15.4684H34.6922C34.9274 15.4684 35.1537 15.5396 35.3463 15.6678L53.5113 27.7791C54.3753 28.3551 54.5705 29.4947 53.9473 30.3255L53.8785 30.4229C53.3253 31.1603 52.3311 31.3566 51.5405 30.8821L41.9617 25.1351C41.8276 25.0547 41.6791 25.0012 41.5245 24.9782C41.3699 24.9552 41.2123 24.9629 41.0607 25.0008C40.909 25.0388 40.7664 25.1064 40.6408 25.1994C40.5152 25.2925 40.4092 25.4093 40.3288 25.5433C40.2484 25.6773 40.1952 25.8259 40.1722 25.9805C40.1492 26.1351 40.1569 26.2924 40.1948 26.444C40.2327 26.5957 40.3001 26.7386 40.3932 26.8641C40.4862 26.9897 40.6031 27.0957 40.7371 27.1761L50.316 32.9231C52.1345 34.0144 54.5081 33.5485 55.7804 31.8516L55.8492 31.7588C57.2716 29.8626 56.8011 27.1181 54.8287 25.803L36.6637 13.6961C36.0764 13.303 35.3895 13.098 34.6877 13.098H33.115C31.9247 13.098 30.8113 13.6941 30.151 14.6844L29.191 16.1317C28.9702 16.463 28.6008 16.6605 28.2028 16.6605H24.6591L29.0286 10.5607C29.0367 10.5497 29.0446 10.5388 29.0523 10.5276C29.7133 9.5358 30.8246 8.94089 32.0163 8.94089H39.4938C39.8242 8.94089 40.1543 8.98858 40.4728 9.08121L47.2591 11.0202C48.1162 11.2653 49.0361 11.1767 49.8336 10.7787L51.3828 10.0043C51.5279 9.93766 51.6581 9.84258 51.7657 9.72453C51.8732 9.60649 51.9559 9.46788 52.0088 9.3172C52.0617 9.16652 52.0837 9.00661 52.0735 8.84724C52.0633 8.68788 52.0211 8.53247 51.9494 8.38976C51.8778 8.24705 51.7781 8.12 51.6564 8.01663C51.5347 7.91326 51.3934 7.83548 51.2409 7.78789C51.0885 7.74029 50.928 7.72401 50.7691 7.73976C50.6102 7.75551 50.4561 7.80292 50.316 7.8795L48.7665 8.65445C48.501 8.78745 48.1984 8.81585 47.9132 8.73273L41.1266 6.79376C40.5967 6.64176 40.0462 6.56589 39.4938 6.56589L32.0104 6.56299Z" fill="#099278"/>
<path fill-rule="evenodd" clip-rule="evenodd" d="M59.6621 21.0259L53.7246 25.1821L55.0883 27.1304L61.0258 22.9741L59.6621 21.0259Z" fill="#099278"/>
<path fill-rule="evenodd" clip-rule="evenodd" d="M11.308 20.5667L9.62891 22.2458L14.3789 26.9958L16.058 25.3167L11.308 20.5667Z" fill="#099278"/>
<path d="M22.734 23.8554C21.8489 24.0382 21.0338 24.5568 20.5027 25.3629L15.7945 32.5062C14.7336 34.1164 15.1903 36.3182 16.801 37.3765C16.802 37.3772 16.7998 37.3765 16.801 37.3765L16.9222 37.4551C18.5379 38.5117 20.7397 38.0514 21.8021 36.4395L26.5103 29.2959C27.5712 27.6859 27.1149 25.4839 25.5037 24.4256L25.3779 24.3424C24.5699 23.8137 23.6144 23.6666 22.7293 23.8504L22.734 23.8554ZM24.0837 26.337L24.2049 26.4156C24.7528 26.7738 24.8915 27.4437 24.5298 27.9928L19.8213 35.1407C19.4596 35.6898 18.7737 35.8284 18.2258 35.47L18.1047 35.3917C17.557 35.0333 17.4183 34.359 17.78 33.8099L22.4882 26.6618C22.8502 26.1129 23.5365 25.9743 24.084 26.3327L24.0837 26.337Z" fill="#099278"/>
<path d="M25.4283 28.4895C24.5334 28.6771 23.7088 29.203 23.1739 30.02L19.9223 34.988C18.8526 36.6225 19.3179 38.8492 20.9521 39.9186C22.5861 40.9881 24.8134 40.5228 25.8829 38.8888L29.1347 33.9211C30.2042 32.2869 29.7391 30.0597 28.1049 28.9905C27.2877 28.4559 26.3234 28.3026 25.4283 28.4895ZM26.806 30.9756C27.3734 31.3468 27.5209 32.0547 27.1492 32.6226L23.8976 37.59C23.5259 38.1576 22.8182 38.3048 22.2508 37.9336C21.6829 37.5619 21.5359 36.8547 21.9076 36.2868L25.1592 31.3188C25.5309 30.751 26.2382 30.6039 26.806 30.9756Z" fill="#099278"/>
<path d="M28.5872 32.1723C27.6932 32.3647 26.8712 32.8916 26.3421 33.7124L24.2269 36.9966C23.1681 38.6377 23.645 40.8612 25.2845 41.9228C26.9239 42.9844 29.1522 42.5063 30.2107 40.8652L32.3259 37.5807C33.3847 35.9396 32.9075 33.7164 31.2683 32.6548C30.4487 32.1239 29.4811 31.9802 28.5872 32.1723ZM29.9742 34.6497C30.5435 35.0183 30.699 35.7259 30.3314 36.2961L28.2114 39.5757C27.8436 40.1459 27.1439 40.297 26.5739 39.9279C26.0046 39.5593 25.8535 38.8517 26.2214 38.2815L28.3366 35.0019C28.7042 34.4319 29.4046 34.2808 29.9742 34.6497Z" fill="#099278"/>
<path d="M17.0926 23.8277C16.1987 24.0201 15.3767 24.547 14.8473 25.3678L12.7321 28.652C11.6738 30.2931 12.155 32.5163 13.7945 33.5779C15.4334 34.6362 17.6583 34.1603 18.7162 32.5203L20.8313 29.2408C21.8899 27.5997 21.413 25.3718 19.7738 24.3104C18.9539 23.7794 17.9863 23.6358 17.0926 23.8277ZM18.4841 26.3048C19.0534 26.6734 19.2045 27.381 18.8366 27.9515L16.7214 31.2308C16.3535 31.801 15.6534 31.9521 15.0841 31.5833C14.5146 31.2147 14.3637 30.5068 14.7314 29.9366L16.8466 26.6573C17.2145 26.0871 17.9144 25.9357 18.4841 26.3048Z" fill="#099278"/>
<path fill-rule="evenodd" clip-rule="evenodd" d="M38.9224 29.7094C38.6664 29.7172 38.4198 29.8076 38.2193 29.9668C38.0187 30.1261 37.875 30.3458 37.8093 30.5933C37.7436 30.8408 37.7596 31.103 37.8548 31.3407C37.9501 31.5784 38.1195 31.779 38.3379 31.9127L45.0176 36.0922C47.1249 37.4091 49.9217 36.8648 51.3818 34.8536L52.4021 33.4481C52.4991 33.3221 52.5698 33.1778 52.6101 33.024C52.6504 32.8701 52.6594 32.71 52.6366 32.5526C52.6138 32.3952 52.5597 32.2439 52.4774 32.1078C52.3952 31.9717 52.2865 31.8536 52.1578 31.7602C52.0291 31.6669 51.8829 31.6002 51.728 31.5642C51.5731 31.5283 51.4125 31.5237 51.2559 31.5509C51.0992 31.5781 50.9495 31.6365 50.8158 31.7225C50.6821 31.8086 50.5669 31.9206 50.4772 32.0519L49.4567 33.4574C48.7176 34.4756 47.346 34.741 46.2792 34.0743L39.5995 29.8998C39.3981 29.7697 39.1621 29.7033 38.9224 29.7096V29.7094Z" fill="#099278"/>
<path fill-rule="evenodd" clip-rule="evenodd" d="M36.5015 34.4593C36.244 34.4753 35.9987 34.5747 35.8026 34.7422C35.6065 34.9098 35.4701 35.1364 35.4141 35.3882C35.3581 35.6399 35.3855 35.9033 35.4921 36.1382C35.5986 36.3731 35.7787 36.5668 36.0051 36.6905L41.4277 39.7888C43.5889 41.0238 46.3577 40.43 47.82 38.4158L48.8728 36.9642C48.9698 36.8381 49.0405 36.6941 49.0808 36.5403C49.121 36.3865 49.13 36.226 49.1073 36.0686C49.0845 35.9112 49.0304 35.76 48.9481 35.6239C48.8659 35.4878 48.7572 35.3696 48.6285 35.2763C48.4997 35.1829 48.3536 35.1162 48.1987 35.0803C48.0438 35.0444 47.8832 35.04 47.7265 35.0672C47.5699 35.0944 47.4202 35.1525 47.2865 35.2386C47.1527 35.3246 47.0376 35.4366 46.9479 35.5679L45.8948 37.0155C45.1341 38.0631 43.735 38.3673 42.6107 37.7249L37.1833 34.6216C36.9774 34.5006 36.7398 34.4443 36.5015 34.4601V34.4593Z" fill="#099278"/>
<path fill-rule="evenodd" clip-rule="evenodd" d="M31.0783 38.1609L30.2295 40.3825L37.3545 43.1054C39.1552 43.7935 41.2115 43.1294 42.2669 41.5146L43.306 39.9236L41.316 38.6198L40.2722 40.2112C39.8219 40.8995 38.9719 41.1773 38.2033 40.8838L31.0783 38.1609Z" fill="#099278"/>
<path fill-rule="evenodd" clip-rule="evenodd" d="M13.9758 0.625913C13.7853 0.635168 13.5999 0.690164 13.4351 0.786237C13.2704 0.88231 13.1312 1.0164 13.0294 1.17763L0.560624 20.7708C0.473381 20.9079 0.415209 21.0614 0.38971 21.2219C0.36421 21.3824 0.371925 21.5466 0.412377 21.704C0.452829 21.8614 0.525158 22.0089 0.624886 22.1372C0.724613 22.2655 0.849618 22.3719 0.992162 22.45L7.53267 26.0125C7.79505 26.1555 8.10169 26.1943 8.39143 26.1212C8.68117 26.0481 8.93272 25.8685 9.0959 25.6182L21.5506 6.47934C21.6366 6.34675 21.6953 6.19857 21.7232 6.04301C21.7511 5.88746 21.7477 5.72785 21.7132 5.57364C21.6786 5.41942 21.6136 5.27363 21.522 5.14485C21.4304 5.01607 21.314 4.90684 21.1797 4.82362L14.6529 0.801893C14.45 0.676658 14.214 0.615478 13.9758 0.626203V0.625913ZM14.4024 3.43695L18.8973 6.20595L7.70415 23.4009L3.24651 20.9703L14.4024 3.43695Z" fill="#099278"/>
<path fill-rule="evenodd" clip-rule="evenodd" d="M56.7863 0.625824C56.5653 0.625026 56.3485 0.68583 56.1602 0.801514L49.6335 4.82295C49.4992 4.90617 49.3828 5.0154 49.2912 5.14418C49.1995 5.27296 49.1346 5.41875 49.1 5.57297C49.0655 5.72718 49.062 5.88679 49.09 6.04234C49.1179 6.1979 49.1765 6.34637 49.2625 6.47896L61.7173 25.6175C61.8805 25.8679 62.132 26.0475 62.4217 26.1205C62.7115 26.1936 63.0181 26.1548 63.2805 26.0118L69.8165 22.4493C69.9594 22.3717 70.0849 22.2655 70.185 22.1374C70.2852 22.0092 70.358 21.862 70.3989 21.7045C70.4398 21.5471 70.4479 21.3828 70.4227 21.2221C70.3975 21.0614 70.3396 20.9075 70.2526 20.7701L57.7838 1.17725C57.6772 1.00897 57.5299 0.870135 57.3556 0.773682C57.1813 0.677228 56.9855 0.626199 56.7863 0.625244V0.625824ZM56.4061 3.43686L67.5667 20.9702L63.109 23.4008L51.9159 6.20586L56.4061 3.43686Z" fill="#099278"/>
</svg>
