<svg width="78" height="88" viewBox="0 0 78 88" fill="none" xmlns="http://www.w3.org/2000/svg">
<path d="M16.9733 24.5171C16.527 24.5171 16.0928 24.3362 15.7792 24.0225C15.4632 23.7065 15.2822 23.2723 15.2822 22.8284C15.2822 22.7175 15.2943 22.6065 15.316 22.4979C15.3377 22.3894 15.3715 22.2832 15.4125 22.1819C15.4559 22.0806 15.5066 21.9817 15.5693 21.89C15.6296 21.7983 15.6996 21.7115 15.7792 21.6343C15.8564 21.5571 15.9432 21.4847 16.0349 21.4244C16.1266 21.3641 16.2255 21.311 16.3268 21.2676C16.4281 21.2266 16.5342 21.1952 16.6428 21.1735C16.8599 21.1277 17.0843 21.1277 17.3014 21.1735C17.4099 21.1952 17.5161 21.2266 17.6174 21.2676C17.7187 21.311 17.8176 21.3641 17.9093 21.4244C18.001 21.4847 18.0878 21.5571 18.165 21.6343C18.2446 21.7115 18.3146 21.7983 18.3749 21.89C18.4376 21.9817 18.4883 22.0806 18.5317 22.1819C18.5727 22.2832 18.6065 22.3894 18.6282 22.4979C18.6499 22.6065 18.6595 22.7175 18.6595 22.8284C18.6595 23.2723 18.481 23.7065 18.165 24.0225C18.0878 24.0997 18.001 24.1697 17.9093 24.2324C17.8176 24.2927 17.7187 24.3458 17.6174 24.3868C17.5161 24.4302 17.4099 24.4616 17.3014 24.4833C17.1928 24.505 17.0819 24.5171 16.9733 24.5171Z" fill="#C5C5C5"/>
<path d="M93.6722 117H42.4093C41.4757 117 40.7207 116.245 40.7207 115.311V39.9076H16.9709C16.0373 39.9076 15.2822 39.1526 15.2822 38.219V30.4753C15.2822 29.5417 16.0373 28.7866 16.9709 28.7866C17.9045 28.7866 18.6595 29.5417 18.6595 30.4753V36.5303H42.4093C43.3429 36.5303 44.098 37.2854 44.098 38.219V113.622H91.9811V93.7252C91.9811 92.7917 92.7362 92.0366 93.6698 92.0366C94.6034 92.0366 95.3585 92.7917 95.3585 93.7252V115.311C95.3609 116.245 94.6034 117 93.6722 117Z" fill="#C5C5C5"/>
<path d="M93.6722 83.6297C92.7386 83.6297 91.9836 82.8746 91.9836 81.941V3.37732H18.6595V17.5572C18.6595 18.4908 17.9045 19.2459 16.9709 19.2459C16.0373 19.2459 15.2822 18.4908 15.2822 17.5572V1.68866C15.2822 0.755072 16.0373 0 16.9709 0H93.6698C94.6034 0 95.3585 0.755072 95.3585 1.68866V81.941C95.3609 82.8746 94.6034 83.6297 93.6722 83.6297Z" fill="#C5C5C5"/>
<path d="M18.088 60.2225H10.9426C10.009 60.2225 9.25391 59.4674 9.25391 58.5338V51.3884C9.25391 50.4548 10.009 49.6997 10.9426 49.6997H18.088C19.0216 49.6997 19.7767 50.4548 19.7767 51.3884V58.5338C19.7767 59.4674 19.0216 60.2225 18.088 60.2225ZM12.6312 56.8451H16.3994V53.077H12.6312V56.8451Z" fill="#424242"/>
<path d="M33.795 60.2225H26.6496C25.716 60.2225 24.9609 59.4674 24.9609 58.5338V51.3884C24.9609 50.4548 25.716 49.6997 26.6496 49.6997H33.795C34.7286 49.6997 35.4837 50.4548 35.4837 51.3884V58.5338C35.4837 59.4674 34.7262 60.2225 33.795 60.2225ZM28.3383 56.8451H32.1064V53.077H28.3383V56.8451Z" fill="#424242"/>
<path d="M18.088 74.7596H10.9426C10.009 74.7596 9.25391 74.0045 9.25391 73.0709V65.9255C9.25391 64.9919 10.009 64.2368 10.9426 64.2368H18.088C19.0216 64.2368 19.7767 64.9919 19.7767 65.9255V73.0709C19.7767 74.0021 19.0216 74.7596 18.088 74.7596ZM12.6312 71.3823H16.3994V67.6141H12.6312V71.3823Z" fill="#424242"/>
<path d="M33.795 74.7596H26.6496C25.716 74.7596 24.9609 74.0045 24.9609 73.0709V65.9255C24.9609 64.9919 25.716 64.2368 26.6496 64.2368H33.795C34.7286 64.2368 35.4837 64.9919 35.4837 65.9255V73.0709C35.4837 74.0021 34.7262 74.7596 33.795 74.7596ZM28.3383 71.3823H32.1064V67.6141H28.3383V71.3823Z" fill="#424242"/>
<path d="M18.088 89.2938H10.9426C10.009 89.2938 9.25391 88.5387 9.25391 87.6051V80.4597C9.25391 79.5261 10.009 78.771 10.9426 78.771H18.088C19.0216 78.771 19.7767 79.5261 19.7767 80.4597V87.6051C19.7767 88.5387 19.0216 89.2938 18.088 89.2938ZM12.6312 85.9164H16.3994V82.1483H12.6312V85.9164Z" fill="#424242"/>
<path d="M33.795 89.2938H26.6496C25.716 89.2938 24.9609 88.5387 24.9609 87.6051V80.4597C24.9609 79.5261 25.716 78.771 26.6496 78.771H33.795C34.7286 78.771 35.4837 79.5261 35.4837 80.4597V87.6051C35.4837 88.5387 34.7262 89.2938 33.795 89.2938ZM28.3383 85.9164H32.1064V82.1483H28.3383V85.9164Z" fill="#424242"/>
<path d="M60.5695 75.8934H53.6701C52.7365 75.8934 51.9814 75.1383 51.9814 74.2047V67.3054C51.9814 66.3718 52.7365 65.6167 53.6701 65.6167H60.5695C61.5031 65.6167 62.2581 66.3718 62.2581 67.3054V74.2047C62.2581 75.1383 61.5007 75.8934 60.5695 75.8934ZM55.3588 72.5161H58.8808V68.994H55.3588V72.5161Z" fill="#C5C5C5"/>
<path d="M60.5695 91.7425H53.6701C52.7365 91.7425 51.9814 90.9874 51.9814 90.0539V83.1545C51.9814 82.2209 52.7365 81.4658 53.6701 81.4658H60.5695C61.5031 81.4658 62.2581 82.2209 62.2581 83.1545V90.0539C62.2581 90.9874 61.5007 91.7425 60.5695 91.7425ZM55.3588 88.3652H58.8808V84.8431H55.3588V88.3652Z" fill="#C5C5C5"/>
<path d="M33.9706 17.2945H26.8469C25.9133 17.2945 25.1582 16.5394 25.1582 15.6058V8.48212C25.1582 7.54853 25.9133 6.79346 26.8469 6.79346H33.9706C34.9042 6.79346 35.6593 7.54853 35.6593 8.48212V15.6058C35.6593 16.5394 34.9042 17.2945 33.9706 17.2945ZM28.5355 13.9172H32.2819V10.1708H28.5355V13.9172Z" fill="#424242"/>
<path d="M50.9227 17.2945H43.799C42.8654 17.2945 42.1104 16.5394 42.1104 15.6058V8.48212C42.1104 7.54853 42.8654 6.79346 43.799 6.79346H50.9227C51.8563 6.79346 52.6114 7.54853 52.6114 8.48212V15.6058C52.6114 16.5394 51.8563 17.2945 50.9227 17.2945ZM45.4877 13.9172H49.2341V10.1708H45.4877V13.9172Z" fill="#424242"/>
<path d="M67.872 17.2945H60.7482C59.8146 17.2945 59.0596 16.5394 59.0596 15.6058V8.48212C59.0596 7.54853 59.8146 6.79346 60.7482 6.79346H67.872C68.8056 6.79346 69.5606 7.54853 69.5606 8.48212V15.6058C69.5606 16.5394 68.8056 17.2945 67.872 17.2945ZM62.4369 13.9172H66.1833V10.1708H62.4369V13.9172Z" fill="#424242"/>
<path d="M85.9403 17.2945H78.8166C77.883 17.2945 77.1279 16.5394 77.1279 15.6058V8.48212C77.1279 7.54853 77.883 6.79346 78.8166 6.79346H85.9403C86.8739 6.79346 87.629 7.54853 87.629 8.48212V15.6058C87.629 16.5394 86.8715 17.2945 85.9403 17.2945ZM80.5052 13.9172H84.2517V10.1708H80.5052V13.9172Z" fill="#424242"/>
<path d="M33.9706 32.1641H26.8469C25.9133 32.1641 25.1582 31.4091 25.1582 30.4755V23.3517C25.1582 22.4182 25.9133 21.6631 26.8469 21.6631H33.9706C34.9042 21.6631 35.6593 22.4182 35.6593 23.3517V30.4755C35.6593 31.4091 34.9042 32.1641 33.9706 32.1641ZM28.5355 28.7868H32.2819V25.0404H28.5355V28.7868Z" fill="#C5C5C5"/>
<path d="M50.9227 32.1641H43.799C42.8654 32.1641 42.1104 31.4091 42.1104 30.4755V23.3517C42.1104 22.4182 42.8654 21.6631 43.799 21.6631H50.9227C51.8563 21.6631 52.6114 22.4182 52.6114 23.3517V30.4755C52.6114 31.4091 51.8563 32.1641 50.9227 32.1641ZM45.4877 28.7868H49.2341V25.0404H45.4877V28.7868Z" fill="#C5C5C5"/>
<path d="M67.872 32.1641H60.7482C59.8146 32.1641 59.0596 31.4091 59.0596 30.4755V23.3517C59.0596 22.4182 59.8146 21.6631 60.7482 21.6631H67.872C68.8056 21.6631 69.5606 22.4182 69.5606 23.3517V30.4755C69.5606 31.4091 68.8056 32.1641 67.872 32.1641ZM62.4369 28.7868H66.1833V25.0404H62.4369V28.7868Z" fill="#C5C5C5"/>
<path d="M85.9403 32.1641H78.8166C77.883 32.1641 77.1279 31.4091 77.1279 30.4755V23.3517C77.1279 22.4182 77.883 21.6631 78.8166 21.6631H85.9403C86.8739 21.6631 87.629 22.4182 87.629 23.3517V30.4755C87.629 31.4091 86.8715 32.1641 85.9403 32.1641ZM80.5052 28.7868H84.2517V25.0404H80.5052V28.7868Z" fill="#C5C5C5"/>
<path d="M50.9198 47.0342H48.2807C47.3471 47.0342 46.592 46.2792 46.592 45.3456C46.592 44.412 47.3471 43.6569 48.2807 43.6569H49.2311V39.9081H48.0949C47.1613 39.9081 46.4062 39.153 46.4062 38.2194C46.4062 37.2858 47.1613 36.5308 48.0949 36.5308H50.9198C51.8534 36.5308 52.6085 37.2858 52.6085 38.2194V45.3456C52.6085 46.2792 51.8534 47.0342 50.9198 47.0342Z" fill="#C5C5C5"/>
<path d="M67.872 47.0338H60.7482C59.8146 47.0338 59.0596 46.2787 59.0596 45.3451V38.2214C59.0596 37.2878 59.8146 36.5327 60.7482 36.5327H67.872C68.8056 36.5327 69.5606 37.2878 69.5606 38.2214V45.3451C69.5606 46.2763 68.8056 47.0338 67.872 47.0338ZM62.4369 43.6564H66.1833V39.91H62.4369V43.6564Z" fill="#C5C5C5"/>
<path d="M85.9403 47.0338H78.8166C77.883 47.0338 77.1279 46.2787 77.1279 45.3451V38.2214C77.1279 37.2878 77.883 36.5327 78.8166 36.5327H85.9403C86.8739 36.5327 87.629 37.2878 87.629 38.2214V45.3451C87.629 46.2763 86.8715 47.0338 85.9403 47.0338ZM80.5052 43.6564H84.2517V39.91H80.5052V43.6564Z" fill="#C5C5C5"/>
<path d="M85.9403 61.9014H78.8166C77.883 61.9014 77.1279 61.1464 77.1279 60.2128V53.0891C77.1279 52.1555 77.883 51.4004 78.8166 51.4004H85.9403C86.8739 51.4004 87.629 52.1555 87.629 53.0891V60.2128C87.629 61.1464 86.8715 61.9014 85.9403 61.9014ZM80.5052 58.5241H84.2517V54.7777H80.5052V58.5241Z" fill="#C5C5C5"/>
<path d="M85.9403 76.7716H78.8166C77.883 76.7716 77.1279 76.0165 77.1279 75.0829V67.9592C77.1279 67.0256 77.883 66.2705 78.8166 66.2705H85.9403C86.8739 66.2705 87.629 67.0256 87.629 67.9592V75.0829C87.629 76.0165 86.8715 76.7716 85.9403 76.7716ZM80.5052 73.3942H84.2517V69.6478H80.5052V73.3942Z" fill="#C5C5C5"/>
<path d="M85.9403 91.6412H78.8166C77.883 91.6412 77.1279 90.8861 77.1279 89.9525V82.8288C77.1279 81.8952 77.883 81.1401 78.8166 81.1401H85.9403C86.8739 81.1401 87.629 81.8952 87.629 82.8288V89.9525C87.629 90.8837 86.8715 91.6412 85.9403 91.6412ZM80.5052 88.2639H84.2517V84.5175H80.5052V88.2639Z" fill="#C5C5C5"/>
<path d="M71.8306 117H42.4094C41.4758 117 40.7207 116.245 40.7207 115.311V57.8967C40.7207 56.9631 41.4758 56.208 42.4094 56.208H71.8282C72.7618 56.208 73.5169 56.9631 73.5169 57.8967C73.5169 58.8303 72.7618 59.5853 71.8282 59.5853H44.098V113.622H70.1396V65.0638C70.1396 64.1302 70.8946 63.3752 71.8282 63.3752C72.7618 63.3752 73.5169 64.1302 73.5169 65.0638V115.311C73.5193 116.245 72.7618 117 71.8306 117Z" fill="#424242"/>
<path d="M42.4093 117H2.32538C1.39179 117 0.636719 116.245 0.636719 115.312V38.2194C0.636719 37.2858 1.39179 36.5308 2.32538 36.5308H42.4093C43.3429 36.5308 44.098 37.2858 44.098 38.2194V115.312C44.098 116.245 43.3429 117 42.4093 117ZM4.01404 113.623H40.7207V39.9081H4.01404V113.623Z" fill="#C5C5C5"/>
</svg>
