<svg width="83" height="99" viewBox="0 0 83 99" fill="none" xmlns="http://www.w3.org/2000/svg">
<path d="M28.6191 40.2056L39.0537 86.8544H51.9436L61.1506 83.1716C66.8794 69.8726 74.8997 41.3105 61.1506 33.4538C47.4014 25.5972 33.7341 34.6814 28.6191 40.2056Z" fill="#484848"/>
<path d="M117.311 108.501C117.82 108.501 118.307 108.3 118.666 107.94C119.026 107.581 119.228 107.093 119.228 106.585V98.9194C119.228 98.4112 119.026 97.9237 118.666 97.5643C118.307 97.2049 117.82 97.003 117.311 97.003H111.562V93.1702H113.479C113.987 93.1702 114.474 92.9683 114.834 92.6089C115.193 92.2495 115.395 91.7621 115.395 91.2538V75.9226C115.395 75.4144 115.193 74.9269 114.834 74.5675C114.474 74.2081 113.987 74.0062 113.479 74.0062H96.231V58.6751H101.98C102.232 58.6765 102.482 58.6282 102.716 58.5328C102.949 58.4374 103.162 58.2969 103.341 58.1193L105.257 56.2029C106.481 56.7889 107.872 56.9233 109.186 56.5822C110.499 56.2412 111.649 55.4467 112.433 54.3394C113.217 53.232 113.584 51.8831 113.469 50.5313C113.354 49.1794 112.765 47.9117 111.806 46.9523C110.846 45.993 109.579 45.4038 108.227 45.289C106.875 45.1743 105.526 45.5413 104.419 46.3252C103.311 47.1091 102.517 48.2593 102.176 49.5725C101.835 50.8857 101.969 52.2771 102.555 53.5008L101.194 54.8614H96.231V47.1767H98.1474C98.5653 47.1985 98.9789 47.0829 99.3249 46.8476C99.6709 46.6123 99.9305 46.2702 100.064 45.8735L103.897 34.3751C103.992 34.0869 104.017 33.7803 103.97 33.4804C103.924 33.1806 103.806 32.8961 103.628 32.6504L95.9627 23.0684C95.7831 22.8445 95.5556 22.6639 95.2969 22.5398C95.0382 22.4156 94.7549 22.3512 94.4679 22.3512C94.181 22.3512 93.8977 22.4156 93.639 22.5398C93.3802 22.6639 93.1527 22.8445 92.9731 23.0684L85.3075 32.6504C85.1294 32.8961 85.0123 33.1806 84.9656 33.4804C84.919 33.7803 84.9442 34.0869 85.0392 34.3751L88.872 45.8735C88.9873 46.2221 89.2003 46.5303 89.4857 46.7613C89.7711 46.9923 90.1168 47.1365 90.4818 47.1767H92.3982V54.8423H87.4347L86.0741 53.4816C86.6601 52.258 86.7944 50.8665 86.4534 49.5533C86.1124 48.2401 85.3179 47.0899 84.2106 46.306C83.1032 45.5221 81.7543 45.1551 80.4025 45.2699C79.0506 45.3846 77.7829 45.9738 76.8235 46.9332C75.8642 47.8925 75.275 49.1602 75.1602 50.5121C75.0454 51.864 75.4125 53.2129 76.1964 54.3202C76.9802 55.4276 78.1305 56.222 79.4437 56.5631C80.7568 56.9041 82.1483 56.7697 83.372 56.1837L85.2884 58.1001C85.4659 58.2812 85.6775 58.4253 85.9111 58.524C86.1446 58.6226 86.3955 58.674 86.649 58.6751H92.3982V74.0062H71.5478C73.941 69.2515 75.1756 63.9981 75.1506 58.6751C75.1506 41.7724 63.1156 28.0127 48.321 28.0127C44.9327 28.0496 41.5876 28.7774 38.4902 30.1514C35.3928 31.5255 32.6083 33.517 30.3069 36.0041L23.4078 2.7162C23.4078 2.20794 23.2059 1.7205 22.8465 1.3611C22.4872 1.00171 21.9997 0.799805 21.4914 0.799805C20.9832 0.799805 20.4957 1.00171 20.1363 1.3611C19.777 1.7205 19.575 2.20794 19.575 2.7162L0.411058 94.7033C0.353589 94.9803 0.358151 95.2666 0.424419 95.5416C0.490687 95.8166 0.617016 96.0736 0.794338 96.294C0.978732 96.5214 1.2128 96.7036 1.47856 96.8265C1.74433 96.9494 2.03472 97.0098 2.32746 97.003H19.575V116.167H0.411058V120H119.228V116.167H115.395V108.501H117.311ZM107.729 49.0931C108.108 49.0931 108.479 49.2055 108.794 49.416C109.109 49.6266 109.355 49.9259 109.5 50.2761C109.645 50.6263 109.683 51.0116 109.609 51.3833C109.535 51.7551 109.353 52.0965 109.084 52.3646C108.816 52.6326 108.475 52.8151 108.103 52.889C107.732 52.963 107.346 52.925 106.996 52.78C106.646 52.6349 106.347 52.3893 106.136 52.0742C105.925 51.759 105.813 51.3885 105.813 51.0095C105.813 50.5012 106.015 50.0138 106.374 49.6544C106.734 49.295 107.221 49.0931 107.729 49.0931ZM94.3146 27.2461L97.9941 31.8455H90.6351L94.3146 27.2461ZM89.3128 35.6783H99.3164L96.7676 43.3439H91.8616L89.3128 35.6783ZM78.9834 51.0095C78.9834 50.6304 79.0958 50.2599 79.3064 49.9448C79.517 49.6296 79.8163 49.384 80.1664 49.2389C80.5166 49.0939 80.9019 49.0559 81.2737 49.1299C81.6454 49.2038 81.9869 49.3863 82.2549 49.6544C82.5229 49.9224 82.7054 50.2638 82.7794 50.6356C82.8533 51.0073 82.8154 51.3927 82.6703 51.7428C82.5253 52.093 82.2797 52.3923 81.9645 52.6029C81.6494 52.8135 81.2788 52.9259 80.8998 52.9259C80.3916 52.9259 79.9041 52.724 79.5447 52.3646C79.1853 52.0052 78.9834 51.5177 78.9834 51.0095ZM115.395 104.669H57.903V100.836H115.395V104.669ZM50.2374 89.3374C52.8799 89.1201 55.4692 88.4728 57.903 87.421V91.2538C57.903 91.7621 58.1049 92.2495 58.4643 92.6089C58.8237 92.9683 59.3112 93.1702 59.8194 93.1702H61.7358V97.003H55.9866C55.4784 97.003 54.9909 97.2049 54.6315 97.5643C54.2721 97.9237 54.0702 98.4112 54.0702 98.9194V106.585C54.0702 107.093 54.2721 107.581 54.6315 107.94C54.9909 108.3 55.4784 108.501 55.9866 108.501H57.903V116.167H50.2374V89.3374ZM96.231 97.003V93.1702H100.064V97.003H96.231ZM92.3982 97.003H73.2342V93.1702H92.3982V97.003ZM69.4014 97.003H65.5686V93.1702H69.4014V97.003ZM61.7358 108.501H65.5686V116.167H61.7358V108.501ZM69.4014 108.501H92.3982V116.167H69.4014V108.501ZM96.231 108.501H103.897V116.167H96.231V108.501ZM107.729 97.003H103.897V93.1702H107.729V97.003ZM111.562 89.3374H61.7358V77.839H111.562V89.3374ZM48.321 31.8455C61.0076 31.8455 71.3178 43.8805 71.3178 58.6751C71.3589 64.0695 69.9206 69.372 67.1592 74.0062H59.8194C59.3112 74.0062 58.8237 74.2081 58.4643 74.5675C58.1049 74.9269 57.903 75.4144 57.903 75.9226V83.0325C55.5259 84.307 52.9212 85.1014 50.2374 85.3705V67.1264L57.3473 60.0357L54.626 57.3144L50.2374 61.7221V54.8423H46.4046V71.3041L43.9325 68.8128L41.2112 71.5341L46.4046 76.7084V85.3896C44.2808 85.1754 42.2045 84.6256 40.253 83.7607L31.2842 40.7184C33.248 38.0264 35.8076 35.8248 38.7629 34.2856C41.7183 32.7465 44.9895 31.9113 48.321 31.8455ZM4.68463 93.1702L21.4914 12.4898L38.2983 93.1702H23.4078V70.9592L28.6013 65.7849L25.88 63.0636L23.4078 65.5549V56.7587H19.575V77.0533L15.1865 72.6456L12.4652 75.3669L19.575 82.4576V93.1702H4.68463ZM23.4078 97.003H40.6554C40.9417 97.004 41.2246 96.9408 41.4833 96.8181C41.742 96.6954 41.9699 96.5163 42.1502 96.294C42.3275 96.0736 42.4539 95.8166 42.5201 95.5416C42.5864 95.2666 42.591 94.9803 42.5335 94.7033L41.1729 88.2068C42.872 88.7453 44.6275 89.0861 46.4046 89.2225V116.167H23.4078V97.003ZM111.562 116.167H107.729V108.501H111.562V116.167Z" fill="#C5C5C5"/>
</svg>
