<svg width="140" height="202" viewBox="0 0 140 202" fill="none" xmlns="http://www.w3.org/2000/svg">
<path d="M91.3087 110.372L91.3086 167.526" stroke="#C5C5C5" stroke-width="7"/>
<path d="M107.185 110.372L107.185 167.526" stroke="#C5C5C5" stroke-width="7"/>
<path d="M84.958 178.64V173.877C84.958 170.37 87.8013 167.526 91.3085 167.526H107.185C110.692 167.526 113.535 170.37 113.535 173.877V178.64" stroke="#C5C5C5" stroke-width="7"/>
<path d="M84.958 99.2581L84.9581 104.021C84.9581 107.528 87.8013 110.371 91.3086 110.371H107.185C110.692 110.371 113.536 107.528 113.535 104.021L113.535 99.2581" stroke="#C5C5C5" stroke-width="7"/>
<path d="M194.46 197.691H4.03418" stroke="#C5C5C5" stroke-width="7" stroke-linecap="round" stroke-linejoin="round"/>
<path d="M99.2471 45.2785V4H134.175V23.0516H107.185" stroke="#C5C5C5" stroke-width="7" stroke-linejoin="round"/>
<path d="M13.5146 184.99H184.979" stroke="#C5C5C5" stroke-width="7" stroke-linecap="round" stroke-linejoin="round"/>
<path d="M32.5665 110.372L32.5664 167.526" stroke="#C5C5C5" stroke-width="7"/>
<path d="M48.4424 110.372L48.4424 167.526" stroke="#C5C5C5" stroke-width="7"/>
<path d="M26.2158 178.64V173.877C26.2158 170.37 29.0591 167.526 32.5664 167.526H48.4427C51.95 167.526 54.7932 170.37 54.7932 173.877V178.64" stroke="#C5C5C5" stroke-width="7"/>
<path d="M26.2158 99.2581L26.2159 104.021C26.2159 107.528 29.0591 110.371 32.5664 110.371H48.4428C51.95 110.371 54.7934 107.528 54.7933 104.021L54.7932 99.2581" stroke="#C5C5C5" stroke-width="7"/>
<path d="M99.2474 42.103L188.155 83.3815V92.9073H10.3398V83.3815L99.2474 42.103Z" stroke="#C5C5C5" stroke-width="7" stroke-linecap="round" stroke-linejoin="round"/>
<path d="M108.773 70.6798C108.773 71.9308 108.527 73.1699 108.048 74.3256C107.569 75.4814 106.868 76.5311 105.983 77.4156C105.099 78.3002 104.048 79.0021 102.893 79.4808C101.737 79.9595 100.498 80.2056 99.2474 80.2056C97.9964 80.2056 96.7577 79.9595 95.602 79.4808C94.4463 79.0021 93.3962 78.3002 92.5116 77.4156C91.6271 76.5311 90.9254 75.4814 90.4467 74.3256C89.968 73.1699 89.7217 71.9308 89.7217 70.6798C89.7218 68.1535 90.7255 65.7311 92.5119 63.9448C94.2983 62.1585 96.7211 61.1548 99.2474 61.1548C101.774 61.1548 104.196 62.1585 105.983 63.9448C107.769 65.7311 108.773 68.1535 108.773 70.6798V70.6798Z" stroke="#484848" stroke-width="7" stroke-linecap="round" stroke-linejoin="round"/>
</svg>
