<svg width="88" height="97" viewBox="0 0 88 97" fill="none" xmlns="http://www.w3.org/2000/svg">
<path fill-rule="evenodd" clip-rule="evenodd" d="M54.9885 12.1158C55.9121 11.533 57.0884 11.533 58.012 12.1158L110.705 45.3635C112.028 46.1984 112.424 47.9479 111.589 49.2712C110.754 50.5944 109.005 50.9902 107.682 50.1553L56.5002 17.8614L5.31871 50.1553C3.99549 50.9902 2.24598 50.5944 1.41106 49.2712C0.576154 47.9479 0.972009 46.1984 2.29523 45.3635L54.9885 12.1158Z" fill="#C5C5C5"/>
<path fill-rule="evenodd" clip-rule="evenodd" d="M18.748 35.4985C20.3126 35.4985 21.581 36.7669 21.581 38.3315V105.334H91.4194V38.3315C91.4194 36.7669 92.6877 35.4985 94.2523 35.4985C95.8169 35.4985 97.0853 36.7669 97.0853 38.3315V108.167C97.0853 109.732 95.8169 111 94.2523 111H18.748C17.1834 111 15.915 109.732 15.915 108.167V38.3315C15.915 36.7669 17.1834 35.4985 18.748 35.4985Z" fill="#C5C5C5"/>
<path fill-rule="evenodd" clip-rule="evenodd" d="M64.9648 3.33297C64.9648 1.76836 66.2332 0.5 67.7978 0.5H86.4954C88.06 0.5 89.3284 1.76836 89.3284 3.33297V33.4389C89.3284 35.0036 88.06 36.2719 86.4954 36.2719C84.9308 36.2719 83.6624 35.0036 83.6624 33.4389V6.16594H70.6308V21.6396C70.6308 23.2042 69.3624 24.4726 67.7978 24.4726C66.2332 24.4726 64.9648 23.2042 64.9648 21.6396V3.33297Z" fill="#C5C5C5"/>
<path fill-rule="evenodd" clip-rule="evenodd" d="M56.5 52.0518C58.0646 52.0518 59.3329 53.3201 59.3329 54.8847V91.6142C59.3329 93.1788 58.0646 94.4472 56.5 94.4472C54.9354 94.4472 53.667 93.1788 53.667 91.6142V54.8847C53.667 53.3201 54.9354 52.0518 56.5 52.0518Z" fill="#484848"/>
<path fill-rule="evenodd" clip-rule="evenodd" d="M35.3008 73.2505C35.3008 71.6858 36.5691 70.4175 38.1338 70.4175H74.866C76.4306 70.4175 77.699 71.6858 77.699 73.2505C77.699 74.8151 76.4306 76.0834 74.866 76.0834H38.1338C36.5691 76.0834 35.3008 74.8151 35.3008 73.2505Z" fill="#484848"/>
<path fill-rule="evenodd" clip-rule="evenodd" d="M35.3008 54.8847C35.3008 53.3201 36.5691 52.0518 38.1338 52.0518H74.866C76.4306 52.0518 77.699 53.3201 77.699 54.8847V91.617C77.699 93.1816 76.4306 94.45 74.866 94.45H38.1338C36.5691 94.45 35.3008 93.1816 35.3008 91.617V54.8847ZM40.9667 57.7177V88.784H72.0331V57.7177H40.9667Z" fill="#C5C5C5"/>
</svg>
