<svg width="41" height="41" viewBox="0 0 41 41" fill="none" xmlns="http://www.w3.org/2000/svg">
<g clip-path="url(#clip0_197_7311)">
<path d="M41.2208 8.84381C41.2084 8.81117 41.1954 8.78288 41.1809 8.7517C41.1635 8.71471 41.1526 8.67627 41.1323 8.64073C41.0837 8.5595 41.0228 8.48842 40.9589 8.4217C40.9531 8.41589 40.9488 8.40864 40.9437 8.40356C40.8414 8.3013 40.721 8.2266 40.5927 8.16712C40.5658 8.15262 40.5376 8.14319 40.5093 8.13231C40.3722 8.08082 40.2271 8.04383 40.0763 8.04383H28.5625V4.03668C28.5625 3.35638 28.0099 2.80444 27.3296 2.80444H15.6164C14.9354 2.80444 14.3827 3.35638 14.3827 4.03668V8.04383H2.86968C2.72318 8.04383 2.58248 8.07864 2.44975 8.12723C2.41784 8.13884 2.38738 8.15044 2.35692 8.16567C2.22709 8.22515 2.1067 8.30057 2.00443 8.40139C2.00226 8.40211 2.00008 8.40356 1.9979 8.40501C1.9921 8.41082 1.9892 8.42025 1.9834 8.42605C1.92103 8.49205 1.86155 8.56167 1.81369 8.64073C1.7912 8.67844 1.7796 8.71906 1.76219 8.7575C1.74769 8.78869 1.7339 8.81842 1.72157 8.85106C1.67226 8.98451 1.64107 9.12304 1.63962 9.26374C1.63962 9.26809 1.63672 9.27172 1.63672 9.27607V37.6495C1.63672 38.3298 2.18938 38.8818 2.86968 38.8818H36.5812C39.1878 38.8818 41.3085 36.7611 41.3085 34.1544V9.27752C41.3085 9.27317 41.3056 9.26882 41.3056 9.26447C41.3042 9.12159 41.2723 8.98016 41.2208 8.84381ZM16.8486 5.26893H26.0959V8.0431H16.8486V5.26893ZM38.0259 10.5105L33.1688 19.6736H25.6411H17.3048H9.77575L4.91859 10.5098L38.0259 10.5105ZM24.1369 22.1395C23.6691 23.144 22.6508 23.8425 21.4723 23.8425C20.2937 23.8425 19.2768 23.144 18.809 22.1395H24.1369ZM38.8426 34.1552C38.8426 35.4019 37.8287 36.4159 36.5819 36.4159H4.10265V14.2355L7.94443 21.4839C8.15984 21.8879 8.57832 22.1395 9.03452 22.1395H16.2278C16.7884 24.5228 18.9207 26.3077 21.4723 26.3077C24.0252 26.3077 26.1575 24.5228 26.7182 22.1395H33.9107C34.3676 22.1395 34.7861 21.8871 35.0008 21.4839L38.8426 14.2355V34.1552Z" fill="#099278"/>
</g>
<defs>
<clipPath id="clip0_197_7311">
<rect width="41" height="41" fill="white"/>
</clipPath>
</defs>
</svg>
