<svg width="51" height="51" viewBox="0 0 51 51" fill="none" xmlns="http://www.w3.org/2000/svg">
<path d="M49.1864 20.5405C49.1864 14.7019 44.6575 9.90138 38.928 9.46814C36.9287 3.83376 31.5785 0 25.5004 0C19.4223 0 14.0721 3.83376 12.0728 9.46814C6.34332 9.90138 1.81445 14.7019 1.81445 20.5405C1.81445 23.5194 2.99535 26.3347 5.08652 28.4125C5.00238 28.9299 4.95997 29.4531 4.95997 29.9768C4.95997 35.3566 9.33652 39.7331 14.7161 39.7331H20.0124V49.3319C20.0124 50.253 20.7591 51 21.6804 51H29.8457C30.7668 51 31.5138 50.2532 31.5138 49.3319V39.7331H36.2848C41.6643 39.7331 46.0409 35.3566 46.0409 29.9768C46.0409 29.4531 45.9985 28.9299 45.9143 28.4125C48.0057 26.3349 49.1864 23.5196 49.1864 20.5405ZM28.6662 35.5139C28.3535 35.8267 28.1777 36.2509 28.1777 36.6934V47.6639H23.3483V34.6821C23.3483 34.2397 23.1725 33.8154 22.8598 33.5025L19.9567 30.5995L20.4846 30.0716L22.5421 32.1293C23.0193 32.6063 23.7366 32.7489 24.3601 32.4909C24.9832 32.2327 25.3897 31.6245 25.3897 30.9498V27.8347H26.1363V32.9609C26.1363 33.6356 26.5428 34.2438 27.1659 34.5021C27.7893 34.76 28.5067 34.6177 28.9839 34.1405L30.5161 32.6081L31.044 33.1359L28.6662 35.5139ZM43.02 26.5377C42.5126 26.9562 42.2985 27.6334 42.473 28.2676C42.6268 28.8263 42.7049 29.4012 42.7049 29.9768C42.7049 33.517 39.8249 36.3972 36.2848 36.3972H32.501L34.5826 34.3156C34.8953 34.0027 35.0711 33.5786 35.0711 33.1361C35.0711 32.6937 34.8953 32.2693 34.5826 31.9566L31.6956 29.0698C31.0876 28.4621 30.1274 28.4211 29.4724 28.9479V26.1666C29.4724 25.2455 28.7256 24.4985 27.8044 24.4985H23.7218C22.8007 24.4985 22.0537 25.2453 22.0537 26.1666V26.9227L21.6643 26.5331C21.3516 26.2204 20.9273 26.0445 20.4847 26.0445C20.0422 26.0445 19.6181 26.2204 19.3052 26.5331L16.4183 29.42C15.7668 30.0715 15.7668 31.1275 16.4183 31.779L20.0124 35.373V36.397H14.7161C11.1761 36.397 8.29592 33.517 8.29592 29.9767C8.29592 29.4012 8.37388 28.8262 8.52791 28.2674C8.70237 27.6332 8.48824 26.956 7.98082 26.5375C6.18208 25.0546 5.15057 22.8684 5.15057 20.5405C5.15057 16.257 8.6354 12.7722 12.9189 12.7722C13.0276 12.7722 13.1351 12.7763 13.2426 12.7807C14.0342 12.8111 14.7331 12.2919 14.9288 11.5286C16.1662 6.70487 20.5134 3.33578 25.5006 3.33578C30.4878 3.33578 34.835 6.7047 36.0724 11.5286C36.2681 12.2919 36.9732 12.8104 37.7586 12.7807C37.8661 12.7761 37.9736 12.7722 38.0823 12.7722C42.3658 12.7722 45.8505 16.257 45.8505 20.5405C45.8505 22.8686 44.8188 25.0546 43.02 26.5377Z" fill="#099278"/>
</svg>
