<svg width="51" height="51" viewBox="0 0 51 51" fill="none" xmlns="http://www.w3.org/2000/svg">
<g clip-path="url(#clip0_347_319)">
<path d="M4.05407 21.0791H5.20155C5.19373 21.139 5.18852 21.1997 5.18852 21.2618V43.6053H4.4086C3.62347 43.6053 2.98669 44.2421 2.98669 45.0272C2.98669 45.8123 3.62347 46.4491 4.4086 46.4491H6.61043H12.0073H17.4044H22.8015H28.1984H33.5955H38.9926H44.3895H46.5913C47.3764 46.4491 48.0132 45.8123 48.0132 45.0272C48.0132 44.2421 47.3764 43.6053 46.5913 43.6053H45.8114V21.2618C45.8114 21.1997 45.8062 21.139 45.7984 21.0791H46.9458C48.0173 21.0791 48.9628 20.3954 49.2984 19.3778C49.634 18.3602 49.2806 17.2482 48.4192 16.6107L26.3459 0.278873C25.8437 -0.0929576 25.1567 -0.0929576 24.6545 0.278873L2.58049 16.6107C1.71929 17.248 1.36594 18.3602 1.70151 19.3778C2.03709 20.3954 2.98242 21.0791 4.05407 21.0791V21.0791ZM26.7767 43.6053H24.2237V21.2618C24.2237 21.1997 24.2185 21.139 24.2106 21.0791H26.79C26.7822 21.139 26.777 21.1997 26.777 21.2618V43.6053H26.7767ZM15.9825 43.6053H13.429V21.2618C13.429 21.1997 13.4238 21.139 13.4159 21.0791H15.9955C15.9877 21.139 15.9825 21.1997 15.9825 21.2618V43.6053ZM8.03211 43.6053V22.6837H10.5852V43.6053H8.03211ZM18.8263 43.6053V22.6837H21.3796V43.6053H18.8263ZM29.6203 43.6053V22.6837H32.1736V43.6053H29.6203ZM40.4148 43.6053V22.6837H42.9678V43.6053H40.4148ZM37.5709 21.2618V43.6053H35.0177V21.2618C35.0177 21.1997 35.0124 21.139 35.0046 21.0791H37.5842C37.5764 21.139 37.5709 21.1997 37.5709 21.2618V21.2618ZM25.5001 3.19071L45.8339 18.235H5.16624L25.5001 3.19071V3.19071Z" fill="#B4B4B4"/>
<path d="M49.2636 48.156H1.73734C0.95221 48.156 0.31543 48.7928 0.31543 49.5779C0.31543 50.3631 0.95221 50.9998 1.73734 50.9998H49.2636C50.0487 50.9998 50.6855 50.3631 50.6855 49.5779C50.6855 48.7928 50.049 48.156 49.2636 48.156Z" fill="#B4B4B4"/>
</g>
<defs>
<clipPath id="clip0_347_319">
<rect width="51" height="51" fill="white"/>
</clipPath>
</defs>
</svg>
