<svg width="50" height="50" viewBox="0 0 50 50" fill="none" xmlns="http://www.w3.org/2000/svg">
<path d="M7.75664 3.38306H2.22041C0.994043 3.38306 0 4.3771 0 5.60337V11.1397C0 12.366 0.994043 13.3601 2.22041 13.3601H7.75674C8.98301 13.3601 9.97715 12.3661 9.97715 11.1397V5.60337C9.97705 4.3771 8.98301 3.38306 7.75664 3.38306ZM7.81406 11.068L2.21709 11.0648V5.52837L2.27773 5.52515L7.81728 5.52837L7.81406 11.068Z" fill="#B19976"/>
<path d="M48.8918 6.70874H15.635C15.0222 6.70874 14.5264 7.20454 14.5264 7.81733C14.5264 8.43003 15.0222 8.92593 15.635 8.92593H48.8918C49.5045 8.92593 50.0004 8.43013 50.0004 7.81733C50.0004 7.20454 49.5046 6.70874 48.8918 6.70874Z" fill="#B19976"/>
<path d="M7.75664 20.0115H2.22041C0.994043 20.0115 0 21.0055 0 22.2318V27.7681C0 28.9944 0.994043 29.9885 2.22041 29.9885H7.75674C8.98301 29.9885 9.97715 28.9945 9.97715 27.7681V22.2318C9.97705 21.0055 8.98301 20.0115 7.75664 20.0115ZM7.81406 27.6964L2.21709 27.6932V22.1569L2.27773 22.1537L7.81728 22.1569L7.81406 27.6964Z" fill="#B19976"/>
<path d="M48.8918 23.3372H15.635C15.0222 23.3372 14.5264 23.833 14.5264 24.4458C14.5264 25.0585 15.0222 25.5543 15.635 25.5543H48.8918C49.5045 25.5543 50.0004 25.0585 50.0004 24.4458C50.0004 23.833 49.5046 23.3372 48.8918 23.3372Z" fill="#B19976"/>
<path d="M7.75664 36.6399H2.22041C0.994043 36.6399 0 37.634 0 38.8603V44.3966C0 45.6229 0.994043 46.617 2.22041 46.617H7.75674C8.98301 46.617 9.97715 45.623 9.97715 44.3966V38.8603C9.97705 37.634 8.98301 36.6399 7.75664 36.6399ZM7.81406 44.3249L2.21709 44.3216V38.7853L2.27773 38.7821L7.81728 38.7853L7.81406 44.3249Z" fill="#B19976"/>
<path d="M48.8918 39.9656H15.635C15.0222 39.9656 14.5264 40.4614 14.5264 41.0742C14.5264 41.687 15.0222 42.1828 15.635 42.1828H48.8918C49.5045 42.1828 50.0004 41.687 50.0004 41.0742C50.0004 40.4614 49.5046 39.9656 48.8918 39.9656Z" fill="#B19976"/>
</svg>
