<svg width="64" height="64" viewBox="0 0 64 64" fill="none" xmlns="http://www.w3.org/2000/svg">
<g clip-path="url(#clip0_347_352)">
<path d="M63.1634 17.7289H30.3854L22.9283 11.7365C22.6223 11.4905 22.1864 11.4905 21.8802 11.7365L15.8954 16.5458V14.9402C15.8954 14.4783 15.5208 14.1036 15.0588 14.1036H8.50545C8.04351 14.1036 7.66885 14.4783 7.66885 14.9402V23.1566L0.312613 29.0681C0.0359771 29.2905 -0.0704107 29.6632 0.0475501 29.9979C0.165511 30.3327 0.481607 30.5568 0.836605 30.5568H4.74074V51.6113C4.74074 52.0732 5.11526 52.4479 5.57735 52.4479H63.1634C63.6255 52.4479 64 52.0732 64 51.6113V18.5655C64 18.1034 63.6255 17.7289 63.1634 17.7289ZM62.3268 19.4021V28.8836H44.2664L32.4675 19.4021H62.3268ZM9.34205 15.7768H14.2222V17.8904L9.34205 21.8121V15.7768ZM22.4043 13.4618L41.5954 28.8836H39.8151L22.9287 15.3138C22.6227 15.0678 22.1868 15.0678 21.8806 15.3138L4.99437 28.8836H3.21325L22.4043 13.4618ZM32.3486 50.7747H27.329V37.9468H32.3486V50.7747ZM58.7015 39.9686H42.8061V37.9468H58.7015V39.9686ZM42.8061 41.6418H58.7015V43.5241H42.8061V41.6418ZM42.8061 45.1973H58.7015V47.0797H42.8061V45.1973ZM42.8061 48.7529H58.7015V50.7747H42.8061V48.7529ZM62.3268 50.7747H60.3747V37.1102C60.3747 36.6482 60.0001 36.2736 59.5381 36.2736H41.9695C41.5076 36.2736 41.1329 36.6482 41.1329 37.1102V50.7747H34.0218V37.1102C34.0218 36.6482 33.6473 36.2736 33.1852 36.2736H26.4924C26.0303 36.2736 25.6558 36.6482 25.6558 37.1102V50.7747H6.41395V29.8892L22.4047 17.0391L38.9966 30.3723C39.1451 30.4917 39.3302 30.5568 39.5206 30.5568H62.3268V50.7747Z" fill="#546988"/>
<path d="M19.5202 34.3215H11.2936C10.8317 34.3215 10.457 34.6962 10.457 35.1581V43.3847C10.457 43.8467 10.8317 44.2213 11.2936 44.2213H19.5202C19.9822 44.2213 20.3568 43.8467 20.3568 43.3847V35.1581C20.3568 34.6961 19.9823 34.3215 19.5202 34.3215ZM12.1302 35.9947H15.1978V42.5481H12.1302V35.9947ZM18.6836 42.5481H16.871V35.9947H18.6836V42.5481Z" fill="#546988"/>
</g>
<defs>
<clipPath id="clip0_347_352">
<rect width="64" height="64" fill="white"/>
</clipPath>
</defs>
</svg>
