<svg width="99" height="98" viewBox="0 0 99 98" fill="none" xmlns="http://www.w3.org/2000/svg">
<path d="M47.885 115.732C44.0754 114.767 40.3931 113.356 36.9148 111.527C24.8806 105.301 13.6299 94.2382 5.24135 80.3785C-3.14723 66.5188 -7.75249 51.42 -7.70209 37.8829C-7.65228 23.6421 -2.51158 12.71 6.76832 7.08775L9.41799 5.48245C11.8211 4.02984 14.7023 3.58995 17.4293 4.25929C20.1564 4.92864 22.5065 6.65256 23.9639 9.05271L33.1894 24.2767C34.6434 26.6795 35.084 29.5611 34.4146 32.2886C33.7451 35.016 32.0203 37.3661 29.6191 38.8226L20.6255 44.2694C22.5964 51.1941 25.8129 58.4298 30.012 65.3609C34.2112 72.2919 39.1396 78.4966 44.3625 83.4491L53.3543 77.9994C54.5437 77.2785 55.8636 76.7989 57.2384 76.5882C58.6132 76.3775 60.0161 76.4396 61.3669 76.7712C62.7176 77.1027 63.9899 77.6971 65.1109 78.5205C66.2319 79.3438 67.1797 80.3799 67.9002 81.5696L77.1233 96.7931C78.5779 99.1952 79.0189 102.077 78.3495 104.804C77.6801 107.531 75.9551 109.881 73.5536 111.337L70.9015 112.941C64.357 116.915 56.4242 117.828 47.885 115.732ZM15.634 11.5738C15.2449 11.4762 14.8403 11.4573 14.4438 11.5181C14.0473 11.5789 13.667 11.7183 13.325 11.9279L10.6729 13.5326C3.72365 17.7428 -0.129597 26.4017 -0.173508 37.8994C-0.221807 50.0789 3.9869 63.7792 11.6771 76.469C19.3672 89.1589 29.5614 99.2247 40.3792 104.831C50.593 110.116 60.047 110.709 66.9963 106.499L69.646 104.893C70.3384 104.474 70.8357 103.796 71.0288 103.01C71.2218 102.223 71.0947 101.392 70.6754 100.7L61.4547 85.4767C61.0348 84.7843 60.3572 84.2869 59.5708 84.0939C58.7844 83.9009 57.9535 84.028 57.2608 84.4473L45.8629 91.3526C45.179 91.7673 44.3808 91.9535 43.5839 91.8844C42.7871 91.8153 42.0329 91.4945 41.4305 90.9683C34.8803 85.2477 28.7033 77.7432 23.5671 69.2655C18.4309 60.7878 14.6503 51.846 12.6027 43.3892C12.4148 42.6118 12.4792 41.7948 12.7865 41.0564C13.0937 40.318 13.628 39.6965 14.3118 39.2819L25.7121 32.3772C26.4045 31.9573 26.9019 31.2797 27.0949 30.4932C27.2879 29.7068 27.1608 28.8759 26.7415 28.1832L17.519 12.9573C17.312 12.6134 17.0388 12.314 16.7152 12.0765C16.3916 11.839 16.0241 11.6681 15.634 11.5738Z" fill="#C5C5C5"/>
<path d="M62.5925 72.6954C61.6219 72.4571 60.7857 71.8431 60.2678 70.9883C59.7499 70.1335 59.5928 69.108 59.8311 68.1374C61.3998 61.7155 60.3572 54.9336 56.932 49.2794C53.5068 43.6251 47.9787 39.5604 41.5604 37.9768C40.5898 37.7386 39.7536 37.1246 39.2357 36.2698C38.7179 35.415 38.5608 34.3895 38.799 33.4189C39.0372 32.4483 39.6513 31.6121 40.5061 31.0943C41.3608 30.5764 42.3863 30.4193 43.3569 30.6575C60.7452 34.9254 71.4177 52.5482 67.1504 69.934C66.9121 70.9046 66.2981 71.7408 65.4433 72.2586C64.5886 72.7765 63.5631 72.9336 62.5925 72.6954Z" fill="#484848"/>
<path d="M78.0609 76.4919C77.0903 76.2536 76.2541 75.6396 75.7362 74.7848C75.2183 73.93 75.0612 72.9045 75.2995 71.9339C80.6704 50.0517 67.2298 27.8771 45.3573 22.5086C44.3867 22.2703 43.5505 21.6563 43.0326 20.8015C42.5147 19.9468 42.3577 18.9213 42.5959 17.9507C42.8341 16.9801 43.4482 16.1439 44.3029 15.626C45.1577 15.1081 46.1832 14.951 47.1538 15.1893C73.0715 21.5507 88.9802 47.8128 82.6188 73.7305C82.3805 74.7011 81.7665 75.5373 80.9117 76.0551C80.0569 76.573 79.0315 76.7301 78.0609 76.4919Z" fill="#484848"/>
</svg>
