<svg width="266" height="332" viewBox="0 0 266 332" fill="none" xmlns="http://www.w3.org/2000/svg">
<circle cx="133" cy="328" r="133" fill="url(#paint0_linear_338_153)"/>
<path d="M193.242 209.344C193.242 214.422 192.314 219.061 190.459 223.26C188.701 227.459 186.406 231.316 183.574 234.832C180.742 238.348 177.568 241.57 174.053 244.5C170.635 247.43 167.266 250.115 163.945 252.557C160.723 254.998 157.695 257.293 154.863 259.441C152.129 261.492 150.078 263.445 148.711 265.301C148.125 266.082 147.441 267.303 146.66 268.963C145.879 270.525 145.488 272.332 145.488 274.383C145.488 279.656 143.828 284.002 140.508 287.42C137.285 290.838 132.207 292.547 125.273 292.547C121.074 292.547 117.607 291.912 114.873 290.643C112.236 289.275 110.088 287.615 108.428 285.662C106.865 283.709 105.742 281.609 105.059 279.363C104.473 277.117 104.18 275.066 104.18 273.211C104.18 266.57 105.303 261.004 107.549 256.512C109.795 252.02 112.627 248.162 116.045 244.939C119.463 241.619 123.125 238.738 127.031 236.297C130.938 233.855 134.6 231.316 138.018 228.68C141.436 226.043 144.268 223.113 146.514 219.891C148.76 216.57 149.883 212.469 149.883 207.586C149.883 202.508 149.004 198.504 147.246 195.574C145.586 192.645 143.486 190.496 140.947 189.129C138.506 187.664 135.918 186.785 133.184 186.492C130.547 186.102 128.301 185.906 126.445 185.906C121.562 185.906 117.656 186.639 114.727 188.104C111.797 189.471 109.551 191.229 107.988 193.377C106.523 195.525 105.547 197.918 105.059 200.555C104.668 203.094 104.473 205.535 104.473 207.879C104.473 211.688 103.74 214.959 102.275 217.693C100.811 220.33 98.9551 222.479 96.709 224.139C94.5605 225.799 92.168 227.02 89.5312 227.801C86.9922 228.582 84.6484 228.973 82.5 228.973C75.8594 228.973 70.4883 227.166 66.3867 223.553C62.2852 219.842 60.2344 215.105 60.2344 209.344C60.2344 206.805 60.5273 203.533 61.1133 199.529C61.6992 195.525 62.8223 191.277 64.4824 186.785C66.1426 182.293 68.4863 177.801 71.5137 173.309C74.541 168.816 78.4961 164.764 83.3789 161.15C88.2617 157.537 94.2188 154.607 101.25 152.361C108.281 150.115 116.68 148.992 126.445 148.992C137.48 148.992 147.148 150.506 155.449 153.533C163.848 156.463 170.83 160.613 176.396 165.984C181.963 171.258 186.162 177.605 188.994 185.027C191.826 192.352 193.242 200.457 193.242 209.344ZM150.469 332.684C150.469 340.984 148.369 347.137 144.17 351.141C139.971 355.047 134.062 357 126.445 357C118.633 357 112.627 355.047 108.428 351.141C104.229 347.137 102.129 340.984 102.129 332.684C102.129 324.285 104.229 318.182 108.428 314.373C112.627 310.564 118.633 308.66 126.445 308.66C134.551 308.66 140.557 310.564 144.463 314.373C148.467 318.182 150.469 324.285 150.469 332.684Z" fill="url(#paint1_linear_338_153)"/>
<defs>
<linearGradient id="paint0_linear_338_153" x1="133" y1="195" x2="133" y2="461" gradientUnits="userSpaceOnUse">
<stop stop-color="white"/>
<stop offset="1" stop-color="white" stop-opacity="0"/>
</linearGradient>
<linearGradient id="paint1_linear_338_153" x1="127.5" y1="146" x2="127.5" y2="333.5" gradientUnits="userSpaceOnUse">
<stop stop-color="#099278"/>
<stop offset="1" stop-color="#099278" stop-opacity="0.4"/>
</linearGradient>
</defs>
</svg>
