<svg width="48" height="48" viewBox="0 0 48 48" fill="none" xmlns="http://www.w3.org/2000/svg">
<path d="M39 45C38.6617 44.998 38.3339 44.8817 38.07 44.67L27.225 36H6C4.80653 36 3.66193 35.5259 2.81802 34.682C1.97411 33.8381 1.5 32.6935 1.5 31.5V7.5C1.5 6.30653 1.97411 5.16193 2.81802 4.31802C3.66193 3.47411 4.80653 3 6 3H42C43.1935 3 44.3381 3.47411 45.182 4.31802C46.0259 5.16193 46.5 6.30653 46.5 7.5V31.5C46.5 32.6935 46.0259 33.8381 45.182 34.682C44.3381 35.5259 43.1935 36 42 36H40.5V43.5C40.4992 43.7827 40.4185 44.0595 40.2672 44.2983C40.116 44.5372 39.9003 44.7284 39.645 44.85C39.4456 44.9522 39.2241 45.0037 39 45ZM6 6C5.60218 6 5.22064 6.15804 4.93934 6.43934C4.65804 6.72064 4.5 7.10218 4.5 7.5V31.5C4.5 31.8978 4.65804 32.2794 4.93934 32.5607C5.22064 32.842 5.60218 33 6 33H27.75C28.0935 32.9986 28.4271 33.115 28.695 33.33L37.5 40.38V34.5C37.5 34.1022 37.658 33.7206 37.9393 33.4393C38.2206 33.158 38.6022 33 39 33H42C42.3978 33 42.7794 32.842 43.0607 32.5607C43.342 32.2794 43.5 31.8978 43.5 31.5V7.5C43.5 7.10218 43.342 6.72064 43.0607 6.43934C42.7794 6.15804 42.3978 6 42 6H6Z" fill="#099278"/>
<path d="M25.5 18H22.5V21H25.5V18Z" fill="#099278"/>
<path d="M15 18H12V21H15V18Z" fill="#099278"/>
<path d="M36 18H33V21H36V18Z" fill="#099278"/>
</svg>
