<svg width="45" height="45" viewBox="0 0 45 45" fill="none" xmlns="http://www.w3.org/2000/svg">
<path d="M38.5509 34.5741L31.4114 27.4345C32.8866 25.2113 33.75 22.5492 33.75 19.6875C33.75 11.9334 27.4416 5.625 19.6875 5.625C11.9334 5.625 5.625 11.9334 5.625 19.6875C5.625 27.4416 11.9334 33.75 19.6875 33.75C22.5492 33.75 25.2113 32.8866 27.4345 31.4114L34.5741 38.5509C35.6709 39.6492 37.4541 39.6492 38.5509 38.5509C39.6492 37.4527 39.6492 35.6723 38.5509 34.5741ZM9.84375 19.6875C9.84375 14.2594 14.2594 9.84375 19.6875 9.84375C25.1156 9.84375 29.5312 14.2594 29.5312 19.6875C29.5312 25.1156 25.1156 29.5312 19.6875 29.5312C14.2594 29.5312 9.84375 25.1156 9.84375 19.6875Z" fill="#099278"/>
</svg>
