<svg width="46" height="46" viewBox="0 0 46 46" fill="none" xmlns="http://www.w3.org/2000/svg">
<path fill-rule="evenodd" clip-rule="evenodd" d="M23.5606 1.55243C23.2012 1.39431 22.7987 1.39431 22.4394 1.55243L2.31438 10.1774C1.7825 10.4074 1.4375 10.9249 1.4375 11.4999C1.4375 11.8306 1.68188 44.5624 23 44.5624C44.3181 44.5624 44.5625 11.8306 44.5625 11.4999C44.5625 10.9249 44.2175 10.4074 43.6856 10.1774L23.5606 1.55243ZM3.44465 11.869C3.44467 11.8698 3.44469 11.8707 3.44471 11.8715C3.45129 12.1138 3.46368 12.4657 3.48692 12.9114C3.53343 13.8032 3.62318 15.0675 3.79585 16.5783C4.14232 19.6101 4.81741 23.5871 6.1229 27.5259C8.77164 35.5176 13.6907 42.5624 23 42.5624C32.3093 42.5624 37.2284 35.5176 39.8771 27.5259C41.1826 23.5871 41.8577 19.6101 42.2042 16.5783C42.3768 15.0675 42.4666 13.8032 42.5131 12.9114C42.5363 12.4657 42.5487 12.1138 42.5553 11.8715C42.5553 11.8707 42.5553 11.8698 42.5554 11.869L23 3.4881L3.44465 11.869Z" fill="#099278"/>
<path fill-rule="evenodd" clip-rule="evenodd" d="M23.312 11.066C23.112 10.978 22.888 10.978 22.688 11.066L11.488 15.8656C11.192 15.9936 11 16.2816 11 16.6015C11 16.7855 11.136 35 23 35C34.864 35 35 16.7855 35 16.6015C35 16.2816 34.808 15.9936 34.512 15.8656L23.312 11.066ZM12.117 16.8069C12.117 16.8074 12.117 16.8078 12.1171 16.8083C12.1207 16.9431 12.1276 17.139 12.1405 17.387C12.1664 17.8833 12.2164 18.5868 12.3125 19.4275C12.5053 21.1146 12.881 23.3277 13.6075 25.5196C15.0816 29.9668 17.8192 33.887 23 33.887C28.1808 33.887 30.9184 29.9668 32.3925 25.5196C33.119 23.3277 33.4947 21.1146 33.6875 19.4275C33.7836 18.5868 33.8336 17.8833 33.8595 17.387C33.8724 17.139 33.8793 16.9431 33.8829 16.8083C33.883 16.8078 33.883 16.8074 33.883 16.8069L23 12.1431L12.117 16.8069Z" fill="#099278"/>
</svg>
