<svg width="48" height="48" viewBox="0 0 48 48" fill="none" xmlns="http://www.w3.org/2000/svg">
<path d="M24.0001 3.99805C35.0475 3.99805 44.0033 12.9537 44.0033 24.0012C44.0033 35.0486 35.0475 44.0042 24.0001 44.0042C12.9528 44.0042 3.99707 35.0486 3.99707 24.0012C3.99707 12.9537 12.9528 3.99805 24.0001 3.99805ZM24.0001 6.99805C14.6096 6.99805 6.99707 14.6106 6.99707 24.0012C6.99707 33.3918 14.6096 41.0042 24.0001 41.0042C33.3907 41.0042 41.0033 33.3918 41.0033 24.0012C41.0033 14.6106 33.3907 6.99805 24.0001 6.99805ZM24.0001 26.996C27.2627 26.996 30.3209 28.306 32.5623 30.587C33.1429 31.1778 33.1345 32.1276 32.5437 32.7082C31.9527 33.2888 31.0029 33.2806 30.4223 32.6896C28.7395 30.9768 26.4495 29.996 24.0001 29.996C21.5453 29.996 19.2509 30.9812 17.5671 32.7006C16.9875 33.2926 16.0378 33.3024 15.4459 32.7228C14.854 32.1432 14.8441 31.1936 15.4237 30.6016C17.6661 28.3118 20.7305 26.996 24.0001 26.996ZM18.0011 17.5024C19.381 17.5024 20.4997 18.6211 20.4997 20.001C20.4997 21.381 19.381 22.4996 18.0011 22.4996C16.6212 22.4996 15.5025 21.381 15.5025 20.001C15.5025 18.6211 16.6212 17.5024 18.0011 17.5024ZM30.0011 17.5024C31.3809 17.5024 32.4997 18.6211 32.4997 20.001C32.4997 21.381 31.3809 22.4996 30.0011 22.4996C28.6211 22.4996 27.5025 21.381 27.5025 20.001C27.5025 18.6211 28.6211 17.5024 30.0011 17.5024Z" fill="#099278"/>
</svg>
