<svg width="45" height="45" viewBox="0 0 45 45" fill="none" xmlns="http://www.w3.org/2000/svg">
<g clip-path="url(#clip0_347_144)">
<path d="M22.5004 42.1875C17.241 42.1875 12.298 40.14 8.5799 36.4205C2.50209 30.3441 1.05787 21.1289 4.98834 13.493C5.34412 12.8025 6.19068 12.5311 6.88256 12.8855C7.57443 13.2398 7.84584 14.0878 7.49006 14.7797C4.12068 21.3244 5.35818 29.2219 10.5683 34.432C13.7549 37.62 17.9919 39.375 22.5004 39.375C27.0074 39.375 31.2458 37.62 34.4324 34.432C37.619 31.2441 39.3754 27.007 39.3754 22.5C39.3754 17.9916 37.6204 13.7545 34.4324 10.568C31.2444 7.38141 27.0088 5.625 22.5004 5.625C17.9919 5.625 13.7549 7.38141 10.5683 10.568C10.0185 11.1178 9.12974 11.1178 8.5799 10.568C8.03005 10.0181 8.03005 9.12937 8.5799 8.57953C12.298 4.86141 17.241 2.8125 22.5004 2.8125C27.7597 2.8125 32.7041 4.86141 36.4208 8.57953C40.1404 12.2977 42.1879 17.2406 42.1879 22.5C42.1879 27.758 40.1404 32.7023 36.4208 36.4205C32.7041 40.14 27.7597 42.1875 22.5004 42.1875Z" fill="#099278"/>
<path d="M29.5298 29.5312C29.2219 29.5312 28.9125 29.4314 28.6523 29.2233L21.6211 23.5983C21.2878 23.3311 21.0938 22.9275 21.0938 22.5V11.25C21.0938 10.4738 21.7237 9.84375 22.5 9.84375C23.2762 9.84375 23.9062 10.4738 23.9062 11.25V21.825L30.4102 27.0267C31.0162 27.5133 31.1147 28.3978 30.6295 29.0039C30.3511 29.3498 29.9433 29.5312 29.5298 29.5312Z" fill="#099278"/>
</g>
<defs>
<clipPath id="clip0_347_144">
<rect width="45" height="45" fill="white"/>
</clipPath>
</defs>
</svg>
