<svg width="14" height="22" viewBox="0 0 14 22" fill="none" xmlns="http://www.w3.org/2000/svg">
<path fill-rule="evenodd" clip-rule="evenodd" d="M8.91925 11.0425L0.9375 3.06077L3.05882 0.939453L13.0622 10.9428L12.116 12.0003C10.6622 13.6252 8.37935 15.9068 6.48447 17.76C5.53199 18.6915 4.6688 19.5233 4.04373 20.1223C3.73112 20.4218 3.47788 20.6632 3.30259 20.83L3.10039 21.0221L3.02933 21.0895C3.02926 21.0895 3.02896 21.0898 1.99816 20.0001L0.967386 18.9104L0.968307 18.9095L1.03582 18.8455L1.23474 18.6565C1.40776 18.4919 1.65843 18.2529 1.96821 17.9561C2.58794 17.3623 3.44349 16.5379 4.38685 15.6152C5.88837 14.1467 7.59066 12.4505 8.91925 11.0425Z" fill="white"/>
</svg>
