<svg width="22" height="22" viewBox="0 0 22 22" fill="none" xmlns="http://www.w3.org/2000/svg">
<path d="M0 11C0 4.92487 4.92487 0 11 0V0C17.0751 0 22 4.92487 22 11V11C22 17.0751 17.0751 22 11 22V22C4.92487 22 0 17.0751 0 11V11Z" fill="#099278"/>
<path d="M10.3103 16.6911C10.3103 16.0017 10.3103 15.3381 10.3103 14.7001C10.3103 14.0547 10.3103 13.4497 10.3103 12.8851V9.95908C10.3103 9.39441 10.3103 8.79308 10.3103 8.15508C10.3103 7.50974 10.3103 6.84241 10.3103 6.15308H11.9713C11.9713 6.84241 11.9713 7.50974 11.9713 8.15508C11.9713 8.79308 11.9713 9.39441 11.9713 9.95908V12.8851C11.9713 13.4497 11.9713 14.0547 11.9713 14.7001C11.9713 15.3381 11.9713 16.0017 11.9713 16.6911H10.3103ZM6.03125 12.2361V10.6191C6.72058 10.6191 7.38792 10.6191 8.03325 10.6191C8.67858 10.6191 9.27992 10.6191 9.83725 10.6191H12.4443C13.0089 10.6191 13.6103 10.6191 14.2483 10.6191C14.8936 10.6191 15.5609 10.6191 16.2503 10.6191V12.2361C15.5609 12.2361 14.8936 12.2361 14.2483 12.2361C13.6103 12.2361 13.0089 12.2361 12.4443 12.2361H9.83725C9.27992 12.2361 8.67858 12.2361 8.03325 12.2361C7.38792 12.2361 6.72058 12.2361 6.03125 12.2361Z" fill="white"/>
</svg>
