<svg width="26" height="39" viewBox="0 0 26 39" fill="none" xmlns="http://www.w3.org/2000/svg">
<g clip-path="url(#clip0_197_6858)">
<path d="M26.2254 13.7277C26.2254 10.1916 24.832 6.80043 22.3516 4.30007C19.8713 1.79971 16.5072 0.39502 12.9994 0.39502C9.49168 0.39502 6.1276 1.79971 3.64724 4.30007C1.16689 6.80043 -0.226562 10.1916 -0.226562 13.7277C0.0991247 17.1034 1.50762 20.28 3.78544 22.7761L4.70344 23.9757C4.92863 24.3229 5.12209 24.69 5.28144 25.0724C5.45286 25.4592 5.58941 25.8606 5.68944 26.272V26.6833C5.80262 27.0838 5.97451 27.4651 6.19944 27.8144C6.3732 28.0691 6.56645 28.3098 6.77744 28.5341C6.94744 28.5341 7.04944 28.8769 7.21944 29.014C8.05654 29.7251 9.11676 30.1137 10.2114 30.1107H15.7534C16.79 30.0826 17.7876 29.7066 18.5883 29.0423C19.3889 28.378 19.9467 27.4634 20.1734 26.4434C20.3534 25.6214 20.6881 24.8419 21.1594 24.147L22.0774 22.9474C24.4431 20.4277 25.9034 17.1818 26.2254 13.7277ZM10.3134 28.0543C9.69359 28.0499 9.09382 27.8323 8.61344 27.4374C8.12667 27.0225 7.79156 26.4555 7.66144 25.8265C7.55878 25.2812 7.38739 24.7513 7.15144 24.2499C6.89819 23.7194 6.57823 23.2241 6.19944 22.7761L5.31544 21.5422C3.36704 19.37 2.14239 16.6373 1.81344 13.7277C1.81344 12.2469 2.10277 10.7806 2.66492 9.41246C3.22707 8.04437 4.05102 6.80129 5.08974 5.7542C6.12846 4.7071 7.36159 3.87651 8.71874 3.30982C10.0759 2.74314 11.5305 2.45147 12.9994 2.45147C14.4684 2.45147 15.923 2.74314 17.2801 3.30982C18.6373 3.87651 19.8704 4.7071 20.9091 5.7542C21.9479 6.80129 22.7718 8.04437 23.334 9.41246C23.8961 10.7806 24.1854 12.2469 24.1854 13.7277C23.8184 16.6534 22.5453 19.388 20.5474 21.5422L19.6634 22.8103C19.327 23.25 19.0524 23.7344 18.8474 24.2499C18.7253 24.5395 18.623 24.8372 18.5414 25.141C18.4579 25.3645 18.3898 25.5935 18.3374 25.8265C18.1748 26.4422 17.8451 27 17.3854 27.4374C16.9051 27.8323 16.3053 28.0499 15.6854 28.0543H10.3134Z" fill="#FF4B77"/>
<path d="M9.36241 33.4013H16.6384C16.9089 33.4013 17.1684 33.293 17.3597 33.1001C17.5509 32.9073 17.6584 32.6458 17.6584 32.3731C17.6632 32.2368 17.64 32.1009 17.5904 31.974C17.5409 31.8471 17.4659 31.7318 17.3702 31.6354C17.2745 31.5389 17.1602 31.4633 17.0343 31.4134C16.9084 31.3634 16.7736 31.3401 16.6384 31.3449H9.36241C9.22718 31.3401 9.09242 31.3634 8.96652 31.4134C8.84062 31.4633 8.72627 31.5389 8.63059 31.6354C8.53491 31.7318 8.45995 31.8471 8.41037 31.974C8.36079 32.1009 8.33766 32.2368 8.3424 32.3731C8.3424 32.6458 8.44987 32.9073 8.64115 33.1001C8.83244 33.293 9.09188 33.4013 9.36241 33.4013Z" fill="#FF4B77"/>
<path d="M16.7737 34.4639H9.22569C9.09174 34.4639 8.9591 34.4905 8.83535 34.5421C8.7116 34.5938 8.59915 34.6695 8.50444 34.765C8.40972 34.8605 8.33459 34.9739 8.28333 35.0986C8.23207 35.2234 8.20569 35.3571 8.20569 35.4921C8.20094 35.6284 8.22407 35.7643 8.27365 35.8912C8.32323 36.0181 8.39819 36.1334 8.49387 36.2298C8.58955 36.3263 8.7039 36.4018 8.8298 36.4518C8.9557 36.5018 9.09046 36.5251 9.22569 36.5203H16.7737C16.9089 36.5251 17.0437 36.5018 17.1696 36.4518C17.2955 36.4018 17.4098 36.3263 17.5055 36.2298C17.6012 36.1334 17.6761 36.0181 17.7257 35.8912C17.7753 35.7643 17.7984 35.6284 17.7937 35.4921C17.7937 35.2194 17.6862 34.9579 17.4949 34.765C17.3036 34.5722 17.0442 34.4639 16.7737 34.4639Z" fill="#FF4B77"/>
<path d="M15.4813 37.4111H10.5513C10.2807 37.4111 10.0213 37.5195 9.83 37.7123C9.63872 37.9051 9.53125 38.1667 9.53125 38.4394C9.53125 38.7121 9.63872 38.9736 9.83 39.1664C10.0213 39.3593 10.2807 39.4676 10.5513 39.4676H15.4813C15.7518 39.4676 16.0112 39.3593 16.2025 39.1664C16.3938 38.9736 16.5013 38.7121 16.5013 38.4394C16.5013 38.1667 16.3938 37.9051 16.2025 37.7123C16.0112 37.5195 15.7518 37.4111 15.4813 37.4111Z" fill="#FF4B77"/>
</g>
<defs>
<clipPath id="clip0_197_6858">
<rect width="26" height="39" fill="white"/>
</clipPath>
</defs>
</svg>
