<svg width="70" height="143" viewBox="0 0 70 143" fill="none" xmlns="http://www.w3.org/2000/svg">
<path d="M38.9996 0.200195C53.2663 0.200195 64.2663 3.26686 71.9996 9.4002C79.8663 15.5335 83.7996 24.0669 83.7996 35.0002C83.7996 39.8002 82.7329 44.4002 80.5996 48.8002C78.4663 53.2002 76.1329 56.7335 73.5996 59.4002C71.0663 62.0669 67.4663 65.6669 62.7996 70.2002C58.1329 74.6002 54.6663 78.0669 52.3996 80.6002C50.2663 83.0002 48.7329 84.7335 47.7996 85.8002C46.9996 86.8669 46.1329 88.4002 45.1996 90.4002C43.4663 93.8669 43.9329 97.8669 46.5996 102.4L44.9996 103.6C34.5996 98.9335 29.3996 92.0002 29.3996 82.8002C29.3996 76.8002 31.5329 71.4002 35.7996 66.6002C39.9329 61.9335 43.1329 58.0002 45.3996 54.8002C49.6663 48.6669 51.7996 41.6669 51.7996 33.8002C51.7996 25.9335 49.9996 19.8002 46.3996 15.4002C42.7996 10.8669 38.1996 8.60019 32.5996 8.60019C27.1329 8.60019 22.7329 9.73353 19.3996 12.0002C12.5996 16.6669 9.26628 25.8002 9.39961 39.4002H7.39961L0.599609 18.0002C3.66628 12.5335 8.53294 8.2002 15.1996 5.00019C21.9996 1.80019 29.9329 0.200195 38.9996 0.200195ZM54.9996 130.6C54.9996 134.6 53.5996 138 50.7996 140.8C47.9996 143.6 44.5996 145 40.5996 145C36.5996 145 33.1329 143.6 30.1996 140.8C27.3996 138 25.9996 134.934 25.9996 131.6C25.9996 128.267 26.6663 125.467 27.9996 123.2C30.7996 118.4 34.9996 116 40.5996 116C44.5996 116 47.9996 117.467 50.7996 120.4C53.5996 123.2 54.9996 126.6 54.9996 130.6Z" fill="#FEFEFE"/>
</svg>
