<svg width="80" height="86" viewBox="0 0 80 86" fill="none" xmlns="http://www.w3.org/2000/svg">
<path d="M40 72.5V27.5" stroke="#099278" stroke-width="3" stroke-linecap="round" stroke-linejoin="round"/>
<path d="M40 47.5L25 40" stroke="#099278" stroke-width="3" stroke-linecap="round" stroke-linejoin="round"/>
<path d="M40 40L55 32.5" stroke="#099278" stroke-width="3" stroke-linecap="round" stroke-linejoin="round"/>
<path d="M41.4062 56.625C43.6998 58.1873 46.2935 59.2551 49.0222 59.7605C51.751 60.2659 54.555 60.198 57.2561 59.5609C59.9571 58.9238 62.496 57.7316 64.7113 56.0601C66.9265 54.3886 68.7697 52.2743 70.1235 49.8518C71.4774 47.4293 72.3122 44.7515 72.575 41.9888C72.8378 39.2262 72.5227 36.439 71.6499 33.8047C70.7771 31.1704 69.3656 28.7466 67.5052 26.6874C65.6447 24.6282 63.3761 22.9787 60.8437 21.8438C60.2876 21.5642 59.8458 21.1003 59.5937 20.5313C57.9736 16.6718 55.2497 13.3767 51.7639 11.0595C48.2781 8.74227 44.1856 7.5061 39.9999 7.5061C35.8142 7.5061 31.7217 8.74227 28.2359 11.0595C24.7501 13.3767 22.0262 16.6718 20.4062 20.5313C20.154 21.1003 19.7122 21.5642 19.1562 21.8438C16.6237 22.9787 14.3551 24.6282 12.4947 26.6874C10.6342 28.7466 9.22274 31.1704 8.34991 33.8047C7.47709 36.439 7.16205 39.2262 7.42483 41.9888C7.68761 44.7515 8.52246 47.4293 9.87629 49.8518C11.2301 52.2743 13.0733 54.3886 15.2886 56.0601C17.5038 57.7316 20.0427 58.9238 22.7438 59.5609C25.4448 60.198 28.2489 60.2659 30.9776 59.7605C33.7063 59.2551 36.3 58.1873 38.5937 56.625C39.0114 56.3508 39.5002 56.2047 39.9999 56.2047C40.4996 56.2047 40.9884 56.3508 41.4062 56.625Z" stroke="#099278" stroke-width="3" stroke-linecap="round" stroke-linejoin="round"/>
<path fill-rule="evenodd" clip-rule="evenodd" d="M74.5132 83.9752C74.848 84.1787 75.1694 84.3742 75.4776 84.5592C76.1879 84.9856 77.0992 84.7251 77.4999 84V84C77.9006 83.275 77.6401 82.3578 76.9316 81.9285C76.7121 81.7955 76.4825 81.6554 76.2428 81.5091C72.9138 79.4773 67.6555 76.2679 61.0009 74.8457C52.9633 73.1279 42.9166 73.9785 31.3478 81.9197C30.6648 82.3886 30.5144 83.3288 30.9999 84V84C31.4855 84.6713 32.4238 84.8186 33.1074 84.3507C43.9836 76.9057 53.1723 76.2403 60.3739 77.7794C66.4641 79.081 71.1572 81.9346 74.5132 83.9752Z" fill="#099278"/>
<path fill-rule="evenodd" clip-rule="evenodd" d="M18.8231 76.869C11.7311 77.5121 6.28836 78.7957 3.07499 80.1632C2.31271 80.4876 1.40086 80.2252 1.00016 79.5001V79.5001C0.599459 78.775 0.861162 77.8605 1.61884 77.5255C5.27706 75.9082 11.2018 74.5477 18.5522 73.8812C26.577 73.1535 36.4524 73.2393 47.2464 74.7955C48.0664 74.9137 48.6275 75.6815 48.5002 76.5001V76.5001C48.3728 77.3187 47.6053 77.878 46.7853 77.76C36.2384 76.2422 26.6097 76.1629 18.8231 76.869Z" fill="#099278"/>
</svg>
