<svg width="12" height="4" viewBox="0 0 12 4" fill="none" xmlns="http://www.w3.org/2000/svg">
<path d="M1.57472 3.17008C1.32872 3.17008 1.11572 3.11908 0.935719 3.01708C0.761719 2.91508 0.626719 2.77708 0.530719 2.60308C0.434719 2.42908 0.386719 2.22508 0.386719 1.99108C0.386719 1.63708 0.494719 1.35508 0.710719 1.14508C0.926719 0.935079 1.21472 0.830078 1.57472 0.830078C1.82672 0.830078 2.03972 0.878077 2.21372 0.974077C2.38772 1.07008 2.52272 1.20508 2.61872 1.37908C2.72072 1.55308 2.77172 1.75708 2.77172 1.99108C2.77172 2.33908 2.66372 2.62408 2.44772 2.84608C2.23772 3.06208 1.94672 3.17008 1.57472 3.17008Z" fill="#8A8A8A"/>
<path d="M5.82863 3.17008C5.58263 3.17008 5.36963 3.11908 5.18963 3.01708C5.01563 2.91508 4.88063 2.77708 4.78463 2.60308C4.68862 2.42908 4.64062 2.22508 4.64062 1.99108C4.64062 1.63708 4.74863 1.35508 4.96463 1.14508C5.18063 0.935079 5.46863 0.830078 5.82863 0.830078C6.08063 0.830078 6.29363 0.878077 6.46763 0.974077C6.64163 1.07008 6.77663 1.20508 6.87263 1.37908C6.97463 1.55308 7.02563 1.75708 7.02563 1.99108C7.02563 2.33908 6.91763 2.62408 6.70163 2.84608C6.49163 3.06208 6.20062 3.17008 5.82863 3.17008Z" fill="#8A8A8A"/>
<path d="M10.0825 3.17008C9.83653 3.17008 9.62353 3.11908 9.44353 3.01708C9.26953 2.91508 9.13453 2.77708 9.03853 2.60308C8.94253 2.42908 8.89453 2.22508 8.89453 1.99108C8.89453 1.63708 9.00253 1.35508 9.21853 1.14508C9.43453 0.935079 9.72253 0.830078 10.0825 0.830078C10.3345 0.830078 10.5475 0.878077 10.7215 0.974077C10.8955 1.07008 11.0305 1.20508 11.1265 1.37908C11.2285 1.55308 11.2795 1.75708 11.2795 1.99108C11.2795 2.33908 11.1715 2.62408 10.9555 2.84608C10.7455 3.06208 10.4545 3.17008 10.0825 3.17008Z" fill="#8A8A8A"/>
</svg>
