<svg width="9" height="42" viewBox="0 0 9 42" fill="none" xmlns="http://www.w3.org/2000/svg">
<path d="M2.4275 27.0575C2.33583 22.5842 2.19833 18.1658 2.015 13.8025C1.83167 9.42083 1.63917 5.0575 1.4375 0.712499L8.23 0.519997C8.02833 4.88333 7.83583 9.27416 7.6525 13.6925C7.46917 18.0925 7.33167 22.52 7.24 26.975L2.4275 27.0575ZM4.765 41.66C3.90333 41.66 3.16083 41.4767 2.5375 41.11C1.91417 40.7617 1.42833 40.285 1.08 39.68C0.75 39.0567 0.585 38.3417 0.585 37.535C0.585 36.325 0.960833 35.3533 1.7125 34.62C2.4825 33.8867 3.50917 33.52 4.7925 33.52C5.65417 33.52 6.39667 33.6942 7.02 34.0425C7.64333 34.3725 8.12 34.84 8.45 35.445C8.78 36.05 8.945 36.7467 8.945 37.535C8.945 38.7267 8.57833 39.7167 7.845 40.505C7.11167 41.275 6.085 41.66 4.765 41.66Z" fill="#FF4B77"/>
</svg>
