<svg width="89" height="68" viewBox="0 0 89 68" fill="none" xmlns="http://www.w3.org/2000/svg">
<path d="M3.82002 32.3842L1.95572 31.66C1.93725 31.7076 1.92061 31.7558 1.90583 31.8047L3.82002 32.3842ZM38.0729 3.24609H40.0729V0.690179L37.592 1.30478L38.0729 3.24609ZM38.0729 13.6891L38.6169 15.6137L40.0729 15.2021V13.6891H38.0729ZM17.5874 34.157H15.5874C15.5874 35.2203 16.4195 36.0978 17.4813 36.1542L17.5874 34.157ZM35.4978 45.8631L37.4929 45.7235C37.4849 45.6091 37.4671 45.4956 37.4397 45.3843L35.4978 45.8631ZM27.7178 63.0594L28.6853 64.8098C28.7575 64.7699 28.8271 64.7256 28.8938 64.6771L27.7178 63.0594ZM11.6013 63.2588L10.4846 64.918C10.5854 64.9859 10.6923 65.0444 10.8039 65.0929L11.6013 63.2588ZM3.84634 53.672L1.9488 54.304C1.96932 54.3656 1.99281 54.4261 2.01921 54.4854L3.84634 53.672ZM2.02418 42.8599L0.028271 42.7321C0.0233123 42.8096 0.0228651 42.8872 0.0269318 42.9647L2.02418 42.8599ZM16.7228 13.7966L15.4375 12.2643C15.4183 12.2804 15.3995 12.2968 15.381 12.3135L16.7228 13.7966ZM26.4982 7.15037L25.6632 5.33302C25.616 5.35471 25.5697 5.37823 25.5243 5.40353L26.4982 7.15037ZM8.86218 22.5992L7.24937 21.4165C7.22237 21.4533 7.19664 21.491 7.17222 21.5296L8.86218 22.5992ZM24.1031 22.0006L22.7315 20.545C22.7171 20.5586 22.7029 20.5724 22.6889 20.5864L24.1031 22.0006ZM30.6188 16.8893L29.6214 15.1558C29.5864 15.1759 29.5521 15.197 29.5185 15.2192L30.6188 16.8893ZM18.9919 28.4241L17.283 27.385C17.2475 27.4434 17.215 27.5037 17.1856 27.5654L18.9919 28.4241ZM28.9347 36.5588L30.1028 34.9354C30.044 34.8931 29.983 34.8541 29.92 34.8184L28.9347 36.5588ZM26.2213 35.2391L26.9749 33.3865C26.9155 33.3624 26.8551 33.3411 26.7937 33.3228L26.2213 35.2391ZM33.3356 40.6036L35.0532 39.5791C35.0133 39.5122 34.9696 39.4477 34.9222 39.386L33.3356 40.6036ZM34.1184 56.0754L35.8236 57.1206C35.8835 57.0227 35.935 56.9198 35.9773 56.8131L34.1184 56.0754ZM35.4978 51.0793L37.4679 51.4237C37.4714 51.4042 37.4745 51.3847 37.4773 51.3651L35.4978 51.0793ZM31.1235 60.2348L32.4828 61.702C32.5457 61.6437 32.6048 61.5814 32.6597 61.5155L31.1235 60.2348ZM20.9949 65.2388V67.2388C21.0826 67.2388 21.1702 67.2331 21.2571 67.2216L20.9949 65.2388ZM23.6887 64.8014L24.072 66.7643C24.1563 66.7478 24.2396 66.7259 24.3211 66.6987L23.6887 64.8014ZM14.249 64.41L13.4516 66.2441C13.5591 66.2909 13.6705 66.3281 13.7846 66.3553L14.249 64.41ZM7.18079 59.552L5.54423 60.7016C5.60414 60.7869 5.67062 60.8674 5.74307 60.9423L7.18079 59.552ZM2.46096 48.6388L0.471204 48.841C0.479056 48.9183 0.491401 48.995 0.508176 49.0709L2.46096 48.6388ZM2.46096 37.6105L0.507908 37.1797C0.491147 37.2557 0.478835 37.3326 0.471034 37.41L2.46096 37.6105ZM6.42168 26.5592L4.70833 25.5275C4.68138 25.5723 4.65619 25.6181 4.63283 25.6648L6.42168 26.5592ZM12.2697 18.1787L10.8141 16.8071C10.7782 16.8452 10.7437 16.8847 10.7109 16.9255L12.2697 18.1787ZM21.341 10.2125L20.2808 8.51663C20.2455 8.53866 20.211 8.56178 20.1772 8.58596L21.341 10.2125ZM31.6095 4.96313L31.0536 3.04193C30.9923 3.05968 30.9318 3.08035 30.8725 3.10388L31.6095 4.96313ZM34.3946 14.9093L33.6008 13.0736C33.575 13.0848 33.5494 13.0965 33.524 13.1087L34.3946 14.9093ZM26.958 19.4219L25.7791 17.8064C25.7315 17.8411 25.6854 17.878 25.641 17.9168L26.958 19.4219ZM21.1257 25.2239L19.5999 23.9309C19.5697 23.9665 19.5407 24.0032 19.5131 24.0409L21.1257 25.2239ZM17.8637 31.1639L15.973 30.512C15.9372 30.6158 15.91 30.7224 15.8917 30.8306L17.8637 31.1639ZM36.4437 14.1495L35.8998 12.2249C35.8738 12.2323 35.8479 12.2402 35.8223 12.2485L36.4437 14.1495ZM35.2465 14.5409L34.625 12.6399C34.5666 12.659 34.5091 12.6808 34.4527 12.7052L35.2465 14.5409ZM32.2995 15.9224L31.4289 14.1218C31.3858 14.1426 31.3436 14.1649 31.3021 14.1888L32.2995 15.9224ZM28.6618 18.1787L27.5615 16.5085C27.5348 16.5261 27.5086 16.5443 27.4828 16.5631L28.6618 18.1787ZM25.3003 20.8724L23.9833 19.3673C23.9648 19.3835 23.9466 19.4 23.9287 19.4168L25.3003 20.8724ZM22.4915 23.6122L21.0772 22.198C21.0384 22.2369 21.0012 22.2773 20.9656 22.3192L22.4915 23.6122ZM20.0279 26.7204L18.4153 25.5374C18.3812 25.584 18.3491 25.6319 18.3191 25.6812L20.0279 26.7204ZM18.3242 29.8286L16.5179 28.9699C16.4859 29.0371 16.4577 29.1062 16.4335 29.1766L18.3242 29.8286ZM17.5874 32.7986L15.6154 32.4653C15.5968 32.5754 15.5874 32.6869 15.5874 32.7986H17.5874ZM22.3533 34.4103L22.6362 32.4304C22.5775 32.422 22.5186 32.4162 22.4595 32.4131L22.3533 34.4103ZM24.4485 34.7096L25.0209 32.7932C24.9261 32.7649 24.8293 32.7437 24.7313 32.7297L24.4485 34.7096ZM27.5797 35.7917L28.565 34.0513C28.4903 34.0089 28.4128 33.9715 28.3333 33.9391L27.5797 35.7917ZM31.4937 38.5545L32.8926 37.1252C32.8562 37.0895 32.8184 37.0553 32.7794 37.0226L31.4937 38.5545ZM30.2044 37.4724L31.4901 35.9405C31.452 35.9085 31.4128 35.878 31.3725 35.849L30.2044 37.4724ZM32.5758 39.6136L34.1624 38.396C34.1049 38.321 34.0422 38.2503 33.9747 38.1843L32.5758 39.6136ZM34.6939 43.2053L36.5781 42.5346C36.5607 42.4857 36.5414 42.4374 36.5202 42.39L34.6939 43.2053ZM34.1184 41.916L35.9446 41.1007C35.9126 41.0288 35.8763 40.959 35.836 40.8914L34.1184 41.916ZM35.1774 44.5637L37.1193 44.0849C37.1033 44.02 37.084 43.956 37.0616 43.893L35.1774 44.5637ZM35.684 48.5237H37.684C37.684 48.4771 37.6823 48.4306 37.6791 48.3841L35.684 48.5237ZM35.684 49.79L37.6634 50.0758C37.6771 49.9811 37.684 49.8856 37.684 49.79H35.684ZM35.0163 53.4277L36.9475 53.9477C36.953 53.9271 36.9582 53.9065 36.9631 53.8858L35.0163 53.4277ZM35.2926 52.2535L37.2394 52.7116C37.2482 52.674 37.256 52.636 37.2627 52.5979L35.2926 52.2535ZM32.806 58.2166L34.3422 59.4973C34.4042 59.423 34.4607 59.3442 34.5112 59.2618L32.806 58.2166ZM34.6939 54.625L36.5529 55.3626C36.5812 55.2915 36.6053 55.2188 36.6252 55.1449L34.6939 54.625ZM29.3755 61.8544L30.5515 63.4721C30.6155 63.4256 30.6767 63.3753 30.7348 63.3215L29.3755 61.8544ZM25.8989 64.0646L26.5314 65.962C26.6473 65.9233 26.7594 65.8742 26.8664 65.8151L25.8989 64.0646ZM22.3994 65.0531L22.6615 67.0359C22.7021 67.0305 22.7425 67.0239 22.7826 67.0161L22.3994 65.0531ZM16.9428 65.0531L16.4783 66.9984C16.5802 67.0228 16.6837 67.039 16.7881 67.0471L16.9428 65.0531ZM19.3372 65.2388L19.1826 67.2328C19.234 67.2368 19.2856 67.2388 19.3372 67.2388V65.2388ZM9.20686 61.6471L7.76915 63.0375C7.86643 63.1381 7.97401 63.2282 8.09011 63.3063L9.20686 61.6471ZM5.22378 56.7661L3.39666 57.5795C3.44918 57.6975 3.513 57.8101 3.58723 57.9158L5.22378 56.7661ZM3.03655 51.2405L1.08377 51.6725C1.09871 51.7401 1.11715 51.8068 1.13901 51.8724L3.03655 51.2405ZM2.18487 45.9221L0.18762 46.0269C0.189326 46.0594 0.191827 46.0919 0.195119 46.1243L2.18487 45.9221ZM2.18487 40.3504L0.194949 40.1498C0.19251 40.174 0.190513 40.1983 0.188959 40.2226L2.18487 40.3504ZM3.06024 34.8938L1.14605 34.3142C1.1312 34.3633 1.11824 34.4129 1.1072 34.4629L3.06024 34.8938ZM4.90213 29.5983L3.11327 28.7039C3.0855 28.7595 3.06032 28.8163 3.03783 28.8742L4.90213 29.5983ZM7.711 24.418L6.02104 23.3484C6.0131 23.361 6.0053 23.3736 5.99764 23.3863L7.711 24.418ZM10.3817 20.5271L8.82299 19.2739C8.80445 19.297 8.78642 19.3205 8.76893 19.3443L10.3817 20.5271ZM14.526 15.7842L13.1842 14.3011C13.1448 14.3368 13.1068 14.374 13.0704 14.4126L14.526 15.7842ZM18.9919 11.8932L17.8281 10.2667C17.7864 10.2965 17.7458 10.328 17.7065 10.3609L18.9919 11.8932ZM24.1031 8.48574L23.1292 6.7389C23.1 6.75516 23.0712 6.77215 23.0429 6.78986L24.1031 8.48574ZM34.3946 4.15731L33.9137 2.21599C33.8886 2.22221 33.8636 2.22892 33.8388 2.23611L34.3946 4.15731ZM29.0538 5.97617L28.3168 4.11692C28.2838 4.13001 28.2511 4.14398 28.2188 4.15882L29.0538 5.97617ZM36.0729 3.24609V13.6891H40.0729V3.24609H36.0729ZM15.0465 62.5758L12.3988 61.4247L10.8039 65.0929L13.4516 66.2441L15.0465 62.5758ZM37.5289 11.7645L35.8998 12.2249L36.9877 16.0741L38.6169 15.6137L37.5289 11.7645ZM35.8223 12.2485L34.625 12.6399L35.868 16.4419L37.0652 16.0505L35.8223 12.2485ZM34.4527 12.7052L33.6008 13.0736L35.1884 16.745L36.0403 16.3767L34.4527 12.7052ZM33.524 13.1087L31.4289 14.1218L33.1701 17.7229L35.2652 16.7099L33.524 13.1087ZM31.3021 14.1888L29.6214 15.1558L31.6162 18.6229L33.2969 17.6559L31.3021 14.1888ZM29.5185 15.2192L27.5615 16.5085L29.7621 19.8488L31.7191 18.5595L29.5185 15.2192ZM27.4828 16.5631L25.7791 17.8064L28.137 21.0375L29.8407 19.7942L27.4828 16.5631ZM25.641 17.9168L23.9833 19.3673L26.6173 22.3776L28.275 20.9271L25.641 17.9168ZM23.9287 19.4168L22.7315 20.545L25.4747 23.4561L26.6719 22.328L23.9287 19.4168ZM22.6889 20.5864L21.0772 22.198L23.9057 25.0264L25.5173 23.4148L22.6889 20.5864ZM20.9656 22.3192L19.5999 23.9309L22.6516 26.5169L24.0173 24.9052L20.9656 22.3192ZM19.5131 24.0409L18.4153 25.5374L21.6406 27.9034L22.7384 26.4068L19.5131 24.0409ZM18.3191 25.6812L17.283 27.385L20.7007 29.4633L21.7368 27.7596L18.3191 25.6812ZM17.1856 27.5654L16.5179 28.9699L20.1305 30.6873L20.7981 29.2829L17.1856 27.5654ZM16.4335 29.1766L15.973 30.512L19.7545 31.8159L20.2149 30.4806L16.4335 29.1766ZM15.8917 30.8306L15.6154 32.4653L19.5595 33.1319L19.8357 31.4972L15.8917 30.8306ZM15.5874 32.7986V34.157H19.5874V32.7986H15.5874ZM17.4813 36.1542L22.2472 36.4075L22.4595 32.4131L17.6936 32.1598L17.4813 36.1542ZM22.0705 36.3902L24.1656 36.6895L24.7313 32.7297L22.6362 32.4304L22.0705 36.3902ZM23.8761 36.6259L25.6489 37.1555L26.7937 33.3228L25.0209 32.7932L23.8761 36.6259ZM25.4677 37.0917L26.8261 37.6443L28.3333 33.9391L26.9749 33.3865L25.4677 37.0917ZM26.5943 37.5321L27.9493 38.2992L29.92 34.8184L28.565 34.0513L26.5943 37.5321ZM27.7666 38.1823L29.0362 39.0958L31.3725 35.849L30.1028 34.9354L27.7666 38.1823ZM28.9186 39.0044L30.2079 40.0865L32.7794 37.0226L31.4901 35.9405L28.9186 39.0044ZM30.0947 39.9839L31.1769 41.0429L33.9747 38.1843L32.8926 37.1252L30.0947 39.9839ZM30.9892 40.8312L31.7489 41.8212L34.9222 39.386L34.1624 38.396L30.9892 40.8312ZM31.6179 41.6282L32.4007 42.9405L35.836 40.8914L35.0532 39.5791L31.6179 41.6282ZM32.2921 42.7313L32.8677 44.0206L36.5202 42.39L35.9446 41.1007L32.2921 42.7313ZM32.8097 43.8759L33.2932 45.2343L37.0616 43.893L36.5781 42.5346L32.8097 43.8759ZM33.2356 45.0424L33.556 46.3419L37.4397 45.3843L37.1193 44.0849L33.2356 45.0424ZM33.5027 46.0027L33.6888 48.6633L37.6791 48.3841L37.4929 45.7235L33.5027 46.0027ZM33.684 48.5237V49.79H37.684V48.5237H33.684ZM33.7045 49.5042L33.5183 50.7936L37.4773 51.3651L37.6634 50.0758L33.7045 49.5042ZM33.5277 50.7349L33.3224 51.9091L37.2627 52.5979L37.4679 51.4237L33.5277 50.7349ZM33.3457 51.7955L33.0694 52.9697L36.9631 53.8858L37.2394 52.7116L33.3457 51.7955ZM32.4131 55.0303L31.1008 57.1715L34.5112 59.2618L35.8236 57.1206L32.4131 55.0303ZM31.2698 56.936L29.5873 58.9542L32.6597 61.5155L34.3422 59.4973L31.2698 56.936ZM33.085 52.9078L32.7627 54.105L36.6252 55.1449L36.9475 53.9477L33.085 52.9078ZM32.835 53.8873L32.2594 55.3378L35.9773 56.8131L36.5529 55.3626L32.835 53.8873ZM29.7643 58.7677L28.0163 60.3872L30.7348 63.3215L32.4828 61.702L29.7643 58.7677ZM28.1995 60.2366L26.5419 61.4416L28.8938 64.6771L30.5515 63.4721L28.1995 60.2366ZM26.7504 61.3089L24.9315 62.3142L26.8664 65.8151L28.6853 64.8098L26.7504 61.3089ZM25.2665 62.1673L23.0562 62.904L24.3211 66.6987L26.5314 65.962L25.2665 62.1673ZM23.3054 62.8384L22.0161 63.0902L22.7826 67.0161L24.072 66.7643L23.3054 62.8384ZM22.1372 63.0704L20.7328 63.2561L21.2571 67.2216L22.6615 67.0359L22.1372 63.0704ZM17.4072 63.1078L14.7135 62.4646L13.7846 66.3553L16.4783 66.9984L17.4072 63.1078ZM20.9949 63.2388H19.3372V67.2388H20.9949V63.2388ZM19.4919 63.2448L17.0974 63.0591L16.7881 67.0471L19.1826 67.2328L19.4919 63.2448ZM12.7181 61.5996L10.3236 59.988L8.09011 63.3063L10.4846 64.918L12.7181 61.5996ZM10.6446 60.2568L8.6185 58.1617L5.74307 60.9423L7.76915 63.0375L10.6446 60.2568ZM8.81734 58.4024L6.86034 55.6165L3.58723 57.9158L5.54423 60.7016L8.81734 58.4024ZM7.05091 55.9527L5.67346 52.8586L2.01921 54.4854L3.39666 57.5795L7.05091 55.9527ZM5.74387 53.0401L4.93408 50.6085L1.13901 51.8724L1.9488 54.304L5.74387 53.0401ZM4.98933 50.8085L4.41374 48.2068L0.508176 49.0709L1.08377 51.6725L4.98933 50.8085ZM4.45071 48.4366L4.17462 45.7198L0.195119 46.1243L0.471204 48.841L4.45071 48.4366ZM4.18212 45.8172L4.02144 42.7551L0.0269318 42.9647L0.18762 46.0269L4.18212 45.8172ZM4.0201 42.9877L4.18078 40.4781L0.188959 40.2226L0.028271 42.7321L4.0201 42.9877ZM4.17479 40.5509L4.45088 37.8111L0.471034 37.41L0.194949 40.1498L4.17479 40.5509ZM4.414 38.0414L5.01329 35.3246L1.1072 34.4629L0.507908 37.1797L4.414 38.0414ZM4.97444 35.4733L5.73422 32.9637L1.90583 31.8047L1.14605 34.3142L4.97444 35.4733ZM5.68432 33.1083L6.76643 30.3225L3.03783 28.8742L1.95572 31.66L5.68432 33.1083ZM6.69098 30.4928L8.21054 27.4537L4.63283 25.6648L3.11327 28.7039L6.69098 30.4928ZM8.13504 27.5909L9.42436 25.4497L5.99764 23.3863L4.70833 25.5275L8.13504 27.5909ZM9.40096 25.4876L10.5521 23.6688L7.17222 21.5296L6.02104 23.3484L9.40096 25.4876ZM10.475 23.7819L11.9945 21.7098L8.76893 19.3443L7.24937 21.4165L10.475 23.7819ZM11.9405 21.7802L13.8284 19.4318L10.7109 16.9255L8.82299 19.2739L11.9405 21.7802ZM13.7252 19.5503L15.9816 17.1558L13.0704 14.4126L10.8141 16.8071L13.7252 19.5503ZM15.8678 17.2673L18.0646 15.2797L15.381 12.3135L13.1842 14.3011L15.8678 17.2673ZM18.0082 15.3289L20.2772 13.4255L17.7065 10.3609L15.4375 12.2643L18.0082 15.3289ZM20.1556 13.5198L22.5047 11.8391L20.1772 8.58596L17.8281 10.2667L20.1556 13.5198ZM22.4011 11.9084L25.1633 10.1816L23.0429 6.78986L20.2808 8.51663L22.4011 11.9084ZM25.077 10.2326L27.4722 8.89722L25.5243 5.40353L23.1292 6.7389L25.077 10.2326ZM32.1653 6.88434L34.9505 6.07851L33.8388 2.23611L31.0536 3.04193L32.1653 6.88434ZM34.8756 6.09863L38.5538 5.18741L37.592 1.30478L33.9137 2.21599L34.8756 6.09863ZM27.3332 8.96773L29.8888 7.79353L28.2188 4.15882L25.6632 5.33302L27.3332 8.96773ZM29.7908 7.83543L32.3465 6.82239L30.8725 3.10388L28.3168 4.11692L29.7908 7.83543Z" fill="#F6F6F6"/>
<path d="M52.1511 32.3842L50.2868 31.66C50.2683 31.7076 50.2517 31.7558 50.2369 31.8047L52.1511 32.3842ZM86.404 3.24609H88.404V0.690179L85.923 1.30478L86.404 3.24609ZM86.404 13.6891L86.9479 15.6137L88.404 15.2021V13.6891H86.404ZM65.9185 34.157H63.9185C63.9185 35.2203 64.7505 36.0978 65.8124 36.1542L65.9185 34.157ZM83.8289 45.8631L85.824 45.7235C85.816 45.6091 85.7982 45.4956 85.7707 45.3843L83.8289 45.8631ZM76.0489 63.0594L77.0163 64.8098C77.0885 64.7699 77.1582 64.7256 77.2249 64.6771L76.0489 63.0594ZM59.9324 63.2588L58.8156 64.918C58.9165 64.9859 59.0234 65.0444 59.1349 65.0929L59.9324 63.2588ZM52.1774 53.672L50.2799 54.304C50.3004 54.3656 50.3239 54.4261 50.3503 54.4854L52.1774 53.672ZM50.3552 42.8599L48.3593 42.7321C48.3544 42.8096 48.3539 42.8872 48.358 42.9647L50.3552 42.8599ZM65.0539 13.7966L63.7685 12.2643C63.7494 12.2804 63.7306 12.2968 63.712 12.3135L65.0539 13.7966ZM74.8293 7.15037L73.9943 5.33302C73.9471 5.35471 73.9007 5.37823 73.8554 5.40353L74.8293 7.15037ZM57.1932 22.5992L55.5804 21.4165C55.5534 21.4533 55.5277 21.491 55.5033 21.5296L57.1932 22.5992ZM72.4342 22.0006L71.0626 20.545C71.0482 20.5586 71.0339 20.5724 71.02 20.5864L72.4342 22.0006ZM78.9498 16.8893L77.9524 15.1558C77.9175 15.1759 77.8832 15.197 77.8495 15.2192L78.9498 16.8893ZM67.3229 28.4241L65.6141 27.385C65.5786 27.4434 65.546 27.5037 65.5167 27.5654L67.3229 28.4241ZM77.2657 36.5588L78.4338 34.9354C78.3751 34.8931 78.3141 34.8541 78.2511 34.8184L77.2657 36.5588ZM74.5523 35.2391L75.3059 33.3865C75.2466 33.3624 75.1861 33.3411 75.1247 33.3228L74.5523 35.2391ZM81.6666 40.6036L83.3843 39.5791C83.3444 39.5122 83.3006 39.4477 83.2532 39.386L81.6666 40.6036ZM82.4494 56.0754L84.1546 57.1206C84.2146 57.0227 84.266 56.9198 84.3084 56.8131L82.4494 56.0754ZM83.8289 51.0793L85.799 51.4237C85.8024 51.4042 85.8055 51.3847 85.8084 51.3651L83.8289 51.0793ZM79.4546 60.2348L80.8138 61.702C80.8768 61.6437 80.9359 61.5814 80.9908 61.5155L79.4546 60.2348ZM69.326 65.2388V67.2388C69.4137 67.2388 69.5012 67.2331 69.5881 67.2216L69.326 65.2388ZM72.0197 64.8014L72.403 66.7643C72.4874 66.7478 72.5706 66.7259 72.6522 66.6987L72.0197 64.8014ZM62.5801 64.41L61.7826 66.2441C61.8901 66.2909 62.0016 66.3281 62.1156 66.3553L62.5801 64.41ZM55.5118 59.552L53.8753 60.7016C53.9352 60.7869 54.0017 60.8674 54.0741 60.9423L55.5118 59.552ZM50.792 48.6388L48.8023 48.841C48.8101 48.9183 48.8225 48.995 48.8392 49.0709L50.792 48.6388ZM50.792 37.6105L48.839 37.1797C48.8222 37.2557 48.8099 37.3326 48.8021 37.41L50.792 37.6105ZM54.7527 26.5592L53.0394 25.5275C53.0124 25.5723 52.9872 25.6181 52.9639 25.6648L54.7527 26.5592ZM60.6007 18.1787L59.1451 16.8071C59.1092 16.8452 59.0748 16.8847 59.042 16.9255L60.6007 18.1787ZM69.672 10.2125L68.6118 8.51663C68.5766 8.53866 68.542 8.56178 68.5082 8.58596L69.672 10.2125ZM79.9405 4.96313L79.3847 3.04193C79.3233 3.05968 79.2629 3.08035 79.2035 3.10388L79.9405 4.96313ZM82.7257 14.9093L81.9319 13.0736C81.906 13.0848 81.8804 13.0965 81.8551 13.1087L82.7257 14.9093ZM75.2891 19.4219L74.1101 17.8064C74.0625 17.8411 74.0165 17.878 73.9721 17.9168L75.2891 19.4219ZM69.4568 25.2239L67.931 23.9309C67.9007 23.9665 67.8718 24.0032 67.8441 24.0409L69.4568 25.2239ZM66.1948 31.1639L64.304 30.512C64.2682 30.6158 64.241 30.7224 64.2227 30.8306L66.1948 31.1639ZM84.7748 14.1495L84.2308 12.2249C84.2048 12.2323 84.179 12.2402 84.1533 12.2485L84.7748 14.1495ZM83.5776 14.5409L82.9561 12.6399C82.8977 12.659 82.8402 12.6808 82.7837 12.7052L83.5776 14.5409ZM80.6306 15.9224L79.7599 14.1218C79.7169 14.1426 79.6746 14.1649 79.6332 14.1888L80.6306 15.9224ZM76.9928 18.1787L75.8925 16.5085C75.8659 16.5261 75.8397 16.5443 75.8139 16.5631L76.9928 18.1787ZM73.6314 20.8724L72.3144 19.3673C72.2959 19.3835 72.2777 19.4 72.2598 19.4168L73.6314 20.8724ZM70.8225 23.6122L69.4083 22.198C69.3694 22.2369 69.3322 22.2773 69.2967 22.3192L70.8225 23.6122ZM68.359 26.7204L66.7464 25.5374C66.7122 25.584 66.6801 25.6319 66.6502 25.6812L68.359 26.7204ZM66.6553 29.8286L64.849 28.9699C64.817 29.0371 64.7888 29.1062 64.7645 29.1766L66.6553 29.8286ZM65.9185 32.7986L63.9465 32.4653C63.9278 32.5754 63.9185 32.6869 63.9185 32.7986H65.9185ZM70.6844 34.4103L70.9672 32.4304C70.9086 32.422 70.8496 32.4162 70.7905 32.4131L70.6844 34.4103ZM72.7795 34.7096L73.3519 32.7932C73.2571 32.7649 73.1603 32.7437 73.0624 32.7297L72.7795 34.7096ZM75.9107 35.7917L76.8961 34.0513C76.8213 34.0089 76.7439 33.9715 76.6643 33.9391L75.9107 35.7917ZM79.8247 38.5545L81.2237 37.1252C81.1872 37.0895 81.1495 37.0553 81.1105 37.0226L79.8247 38.5545ZM78.5354 37.4724L79.8212 35.9405C79.7831 35.9085 79.7438 35.878 79.7035 35.849L78.5354 37.4724ZM80.9068 39.6136L82.4935 38.396C82.436 38.321 82.3732 38.2503 82.3058 38.1843L80.9068 39.6136ZM83.025 43.2053L84.9092 42.5346C84.8918 42.4857 84.8725 42.4374 84.8513 42.39L83.025 43.2053ZM82.4494 41.916L84.2757 41.1007C84.2436 41.0288 84.2073 40.959 84.167 40.8914L82.4494 41.916ZM83.5085 44.5637L85.4503 44.0849C85.4343 44.02 85.4151 43.956 85.3927 43.893L83.5085 44.5637ZM84.015 48.5237H86.015C86.015 48.4771 86.0134 48.4306 86.0101 48.3841L84.015 48.5237ZM84.015 49.79L85.9945 50.0758C86.0081 49.9811 86.015 49.8856 86.015 49.79H84.015ZM83.3473 53.4277L85.2786 53.9477C85.2841 53.9271 85.2893 53.9065 85.2942 53.8858L83.3473 53.4277ZM83.6236 52.2535L85.5704 52.7116C85.5793 52.674 85.5871 52.636 85.5937 52.5979L83.6236 52.2535ZM81.1371 58.2166L82.6733 59.4973C82.7352 59.423 82.7917 59.3442 82.8423 59.2618L81.1371 58.2166ZM83.025 54.625L84.884 55.3626C84.9122 55.2915 84.9363 55.2188 84.9562 55.1449L83.025 54.625ZM77.7066 61.8544L78.8825 63.4721C78.9466 63.4256 79.0078 63.3753 79.0658 63.3215L77.7066 61.8544ZM74.23 64.0646L74.8625 65.962C74.9784 65.9233 75.0905 65.8742 75.1974 65.8151L74.23 64.0646ZM70.7304 65.0531L70.9926 67.0359C71.0331 67.0305 71.0735 67.0239 71.1137 67.0161L70.7304 65.0531ZM65.2738 65.0531L64.8094 66.9984C64.9112 67.0228 65.0148 67.039 65.1192 67.0471L65.2738 65.0531ZM67.6683 65.2388L67.5136 67.2328C67.5651 67.2368 67.6167 67.2388 67.6683 67.2388V65.2388ZM57.5379 61.6471L56.1002 63.0375C56.1975 63.1381 56.3051 63.2282 56.4212 63.3063L57.5379 61.6471ZM53.5548 56.7661L51.7277 57.5795C51.7802 57.6975 51.8441 57.8101 51.9183 57.9158L53.5548 56.7661ZM51.3676 51.2405L49.4148 51.6725C49.4298 51.7401 49.4482 51.8068 49.4701 51.8724L51.3676 51.2405ZM50.5159 45.9221L48.5187 46.0269C48.5204 46.0594 48.5229 46.0919 48.5262 46.1243L50.5159 45.9221ZM50.5159 40.3504L48.526 40.1498C48.5236 40.174 48.5216 40.1983 48.52 40.2226L50.5159 40.3504ZM51.3913 34.8938L49.4771 34.3142C49.4623 34.3633 49.4493 34.4129 49.4383 34.4629L51.3913 34.8938ZM53.2332 29.5983L51.4443 28.7039C51.4166 28.7595 51.3914 28.8163 51.3689 28.8742L53.2332 29.5983ZM56.0421 24.418L54.3521 23.3484C54.3442 23.361 54.3364 23.3736 54.3287 23.3863L56.0421 24.418ZM58.7128 20.5271L57.154 19.2739C57.1355 19.297 57.1175 19.3205 57.1 19.3443L58.7128 20.5271ZM62.857 15.7842L61.5152 14.3011C61.4758 14.3368 61.4379 14.374 61.4015 14.4126L62.857 15.7842ZM67.3229 11.8932L66.1592 10.2667C66.1174 10.2965 66.0769 10.328 66.0376 10.3609L67.3229 11.8932ZM72.4342 8.48574L71.4602 6.7389C71.4311 6.75516 71.4023 6.77215 71.374 6.78986L72.4342 8.48574ZM82.7257 4.15731L82.2448 2.21599C82.2197 2.22221 82.1947 2.22892 82.1698 2.23611L82.7257 4.15731ZM77.3849 5.97617L76.6479 4.11692C76.6149 4.13001 76.5822 4.14398 76.5499 4.15882L77.3849 5.97617ZM84.404 3.24609V13.6891H88.404V3.24609H84.404ZM63.3775 62.5758L60.7298 61.4247L59.1349 65.0929L61.7826 66.2441L63.3775 62.5758ZM85.86 11.7645L84.2308 12.2249L85.3188 16.0741L86.9479 15.6137L85.86 11.7645ZM84.1533 12.2485L82.9561 12.6399L84.199 16.4419L85.3963 16.0505L84.1533 12.2485ZM82.7837 12.7052L81.9319 13.0736L83.5195 16.745L84.3714 16.3767L82.7837 12.7052ZM81.8551 13.1087L79.7599 14.1218L81.5012 17.7229L83.5963 16.7099L81.8551 13.1087ZM79.6332 14.1888L77.9524 15.1558L79.9472 18.6229L81.6279 17.6559L79.6332 14.1888ZM77.8495 15.2192L75.8925 16.5085L78.0931 19.8488L80.0501 18.5595L77.8495 15.2192ZM75.8139 16.5631L74.1101 17.8064L76.468 21.0375L78.1718 19.7942L75.8139 16.5631ZM73.9721 17.9168L72.3144 19.3673L74.9484 22.3776L76.6061 20.9271L73.9721 17.9168ZM72.2598 19.4168L71.0626 20.545L73.8058 23.4561L75.003 22.328L72.2598 19.4168ZM71.02 20.5864L69.4083 22.198L72.2367 25.0264L73.8484 23.4148L71.02 20.5864ZM69.2967 22.3192L67.931 23.9309L70.9826 26.5169L72.3483 24.9052L69.2967 22.3192ZM67.8441 24.0409L66.7464 25.5374L69.9716 27.9034L71.0694 26.4068L67.8441 24.0409ZM66.6502 25.6812L65.6141 27.385L69.0318 29.4633L70.0678 27.7596L66.6502 25.6812ZM65.5167 27.5654L64.849 28.9699L68.4615 30.6873L69.1292 29.2829L65.5167 27.5654ZM64.7645 29.1766L64.304 30.512L68.0855 31.8159L68.546 30.4806L64.7645 29.1766ZM64.2227 30.8306L63.9465 32.4653L67.8905 33.1319L68.1668 31.4972L64.2227 30.8306ZM63.9185 32.7986V34.157H67.9185V32.7986H63.9185ZM65.8124 36.1542L70.5782 36.4075L70.7905 32.4131L66.0246 32.1598L65.8124 36.1542ZM70.4015 36.3902L72.4967 36.6895L73.0624 32.7297L70.9672 32.4304L70.4015 36.3902ZM72.2071 36.6259L73.9799 37.1555L75.1247 33.3228L73.3519 32.7932L72.2071 36.6259ZM73.7987 37.0917L75.1571 37.6443L76.6643 33.9391L75.3059 33.3865L73.7987 37.0917ZM74.9254 37.5321L76.2804 38.2992L78.2511 34.8184L76.8961 34.0513L74.9254 37.5321ZM76.0976 38.1823L77.3673 39.0958L79.7035 35.849L78.4338 34.9354L76.0976 38.1823ZM77.2497 39.0044L78.539 40.0865L81.1105 37.0226L79.8212 35.9405L77.2497 39.0044ZM78.4258 39.9839L79.5079 41.0429L82.3058 38.1843L81.2237 37.1252L78.4258 39.9839ZM79.3202 40.8312L80.08 41.8212L83.2532 39.386L82.4935 38.396L79.3202 40.8312ZM79.949 41.6282L80.7318 42.9405L84.167 40.8914L83.3843 39.5791L79.949 41.6282ZM80.6231 42.7313L81.1987 44.0206L84.8513 42.39L84.2757 41.1007L80.6231 42.7313ZM81.1408 43.8759L81.6243 45.2343L85.3927 43.893L84.9092 42.5346L81.1408 43.8759ZM81.5666 45.0424L81.887 46.3419L85.7707 45.3843L85.4503 44.0849L81.5666 45.0424ZM81.8337 46.0027L82.0199 48.6633L86.0101 48.3841L85.824 45.7235L81.8337 46.0027ZM82.015 48.5237V49.79H86.015V48.5237H82.015ZM82.0355 49.5042L81.8494 50.7936L85.8084 51.3651L85.9945 50.0758L82.0355 49.5042ZM81.8587 50.7349L81.6535 51.9091L85.5937 52.5979L85.799 51.4237L81.8587 50.7349ZM81.6768 51.7955L81.4005 52.9697L85.2942 53.8858L85.5704 52.7116L81.6768 51.7955ZM80.7442 55.0303L79.4319 57.1715L82.8423 59.2618L84.1546 57.1206L80.7442 55.0303ZM79.6009 56.936L77.9184 58.9542L80.9908 61.5155L82.6733 59.4973L79.6009 56.936ZM81.4161 52.9078L81.0938 54.105L84.9562 55.1449L85.2786 53.9477L81.4161 52.9078ZM81.166 53.8873L80.5904 55.3378L84.3084 56.8131L84.884 55.3626L81.166 53.8873ZM78.0953 58.7677L76.3473 60.3872L79.0658 63.3215L80.8138 61.702L78.0953 58.7677ZM76.5306 60.2366L74.8729 61.4416L77.2249 64.6771L78.8825 63.4721L76.5306 60.2366ZM75.0815 61.3089L73.2626 62.3142L75.1974 65.8151L77.0163 64.8098L75.0815 61.3089ZM73.5975 62.1673L71.3873 62.904L72.6522 66.6987L74.8625 65.962L73.5975 62.1673ZM71.6365 62.8384L70.3471 63.0902L71.1137 67.0161L72.403 66.7643L71.6365 62.8384ZM70.4683 63.0704L69.0638 63.2561L69.5881 67.2216L70.9926 67.0359L70.4683 63.0704ZM65.7383 63.1078L63.0445 62.4646L62.1156 66.3553L64.8094 66.9984L65.7383 63.1078ZM69.326 63.2388H67.6683V67.2388H69.326V63.2388ZM67.8229 63.2448L65.4285 63.0591L65.1192 67.0471L67.5136 67.2328L67.8229 63.2448ZM61.0491 61.5996L58.6547 59.988L56.4212 63.3063L58.8156 64.918L61.0491 61.5996ZM58.9756 60.2568L56.9496 58.1617L54.0741 60.9423L56.1002 63.0375L58.9756 60.2568ZM57.1484 58.4024L55.1914 55.6165L51.9183 57.9158L53.8753 60.7016L57.1484 58.4024ZM55.382 55.9527L54.0045 52.8586L50.3503 54.4854L51.7277 57.5795L55.382 55.9527ZM54.0749 53.0401L53.2651 50.6085L49.4701 51.8724L50.2799 54.304L54.0749 53.0401ZM53.3204 50.8085L52.7448 48.2068L48.8392 49.0709L49.4148 51.6725L53.3204 50.8085ZM52.7818 48.4366L52.5057 45.7198L48.5262 46.1243L48.8023 48.841L52.7818 48.4366ZM52.5132 45.8172L52.3525 42.7551L48.358 42.9647L48.5187 46.0269L52.5132 45.8172ZM52.3512 42.9877L52.5118 40.4781L48.52 40.2226L48.3593 42.7321L52.3512 42.9877ZM52.5058 40.5509L52.7819 37.8111L48.8021 37.41L48.526 40.1498L52.5058 40.5509ZM52.7451 38.0414L53.3443 35.3246L49.4383 34.4629L48.839 37.1797L52.7451 38.0414ZM53.3055 35.4733L54.0653 32.9637L50.2369 31.8047L49.4771 34.3142L53.3055 35.4733ZM54.0154 33.1083L55.0975 30.3225L51.3689 28.8742L50.2868 31.66L54.0154 33.1083ZM55.022 30.4928L56.5416 27.4537L52.9639 25.6648L51.4443 28.7039L55.022 30.4928ZM56.4661 27.5909L57.7554 25.4497L54.3287 23.3863L53.0394 25.5275L56.4661 27.5909ZM57.732 25.4876L58.8832 23.6688L55.5033 21.5296L54.3521 23.3484L57.732 25.4876ZM58.806 23.7819L60.3256 21.7098L57.1 19.3443L55.5804 21.4165L58.806 23.7819ZM60.2715 21.7802L62.1595 19.4318L59.042 16.9255L57.154 19.2739L60.2715 21.7802ZM62.0563 19.5503L64.3126 17.1558L61.4015 14.4126L59.1451 16.8071L62.0563 19.5503ZM64.1989 17.2673L66.3957 15.2797L63.712 12.3135L61.5152 14.3011L64.1989 17.2673ZM66.3392 15.3289L68.6083 13.4255L66.0376 10.3609L63.7685 12.2643L66.3392 15.3289ZM68.4867 13.5198L70.8358 11.8391L68.5082 8.58596L66.1592 10.2667L68.4867 13.5198ZM70.7322 11.9084L73.4943 10.1816L71.374 6.78986L68.6118 8.51663L70.7322 11.9084ZM73.4081 10.2326L75.8032 8.89722L73.8554 5.40353L71.4602 6.7389L73.4081 10.2326ZM80.4964 6.88434L83.2815 6.07851L82.1698 2.23611L79.3847 3.04193L80.4964 6.88434ZM83.2066 6.09863L86.8849 5.18741L85.923 1.30478L82.2448 2.21599L83.2066 6.09863ZM75.6643 8.96773L78.2199 7.79353L76.5499 4.15882L73.9943 5.33302L75.6643 8.96773ZM78.1219 7.83543L80.6775 6.82239L79.2035 3.10388L76.6479 4.11692L78.1219 7.83543Z" fill="#F6F6F6"/>
</svg>
