<svg width="51" height="51" viewBox="0 0 51 51" fill="none" xmlns="http://www.w3.org/2000/svg">
<path d="M44.4897 0H6.51111C5.53689 0 4.74707 0.789584 4.74707 1.76404V30.2486C4.74801 41.7463 23.9624 50.4802 24.7804 50.8462C25.0098 50.9487 25.2553 51 25.5011 51C25.7469 51 25.9927 50.9487 26.2215 50.8462C27.0398 50.48 46.2535 41.7463 46.2535 30.2483V1.76404C46.2537 0.789584 45.4641 0 44.4897 0ZM42.7256 30.2483C42.7256 37.5554 30.9125 44.7123 25.5013 47.2922C20.09 44.7123 8.27609 37.5557 8.27538 30.2483V3.52808H42.7259V30.2483H42.7256Z" fill="#C76D3B"/>
<path d="M18.8598 38.9191C21.008 40.4877 23.2048 41.7514 24.6692 42.5351C24.9288 42.6744 25.2151 42.744 25.5016 42.744C25.788 42.744 26.0745 42.6744 26.3344 42.5349C27.799 41.7505 29.9951 40.4865 32.1437 38.9191C34.7503 37.0153 39.1232 33.2913 39.1232 29.739V8.703C39.1232 7.72878 38.3336 6.93896 37.3592 6.93896H13.6439C12.6695 6.93896 11.8799 7.72878 11.8799 8.703V29.739C11.8799 33.2925 16.2531 37.0161 18.8598 38.9191ZM15.408 10.467H35.5951V29.739C35.5951 30.5312 34.4389 32.8741 30.0634 36.0696C28.4503 37.2466 26.7968 38.2438 25.5013 38.969C24.2056 38.2445 22.553 37.2477 20.9402 36.0698C16.5642 32.875 15.408 30.5317 15.408 29.739V10.467Z" fill="#C76D3B"/>
</svg>
