<svg width="55" height="55" viewBox="0 0 55 55" fill="none" xmlns="http://www.w3.org/2000/svg">
<path d="M27.5 29.7917C19.9375 29.7917 13.75 23.6042 13.75 16.0417C13.75 8.47925 19.9375 2.29175 27.5 2.29175C35.0625 2.29175 41.25 8.47925 41.25 16.0417C41.25 23.6042 35.0625 29.7917 27.5 29.7917ZM27.5 4.58341C21.1979 4.58341 16.0417 9.73967 16.0417 16.0417C16.0417 22.3438 21.1979 27.5001 27.5 27.5001C33.8021 27.5001 38.9583 22.3438 38.9583 16.0417C38.9583 9.73967 33.8021 4.58341 27.5 4.58341Z" fill="#099278"/>
<path d="M4.58268 52.7083H2.29102V46.9791C2.29102 38.7291 8.93685 32.0833 17.1868 32.0833H37.8118V34.3749H17.1868C10.1973 34.3749 4.58268 39.9895 4.58268 46.9791V52.7083Z" fill="#099278"/>
<path fill-rule="evenodd" clip-rule="evenodd" d="M53.5608 39.5605L39.5001 53.6212L32.4395 46.5605L34.5608 44.4392L39.5001 49.3785L51.4395 37.4392L53.5608 39.5605Z" fill="#099278"/>
</svg>
