<svg width="68" height="43" viewBox="0 0 68 43" fill="none" xmlns="http://www.w3.org/2000/svg">
<path d="M14.3696 2.99854C12.2212 2.99854 10.2437 3.20605 8.43701 3.62109C6.65479 4.01172 5.06787 4.41455 3.67627 4.82959C3.23682 4.95166 2.91943 5.0127 2.72412 5.0127C2.30908 5.0127 1.97949 4.92725 1.73535 4.75635C1.51562 4.56104 1.40576 4.3291 1.40576 4.06055C1.40576 3.59668 1.8208 3.14502 2.65088 2.70557C3.50537 2.26611 4.56738 1.8877 5.83691 1.57031C7.13086 1.22852 8.53467 0.959961 10.0483 0.764648C11.562 0.569336 13.0024 0.47168 14.3696 0.47168C17.0552 0.47168 19.3501 0.740234 21.2544 1.27734C23.1587 1.81445 24.709 2.5835 25.9053 3.58447C27.126 4.58545 28.0049 5.79395 28.542 7.20996C29.1035 8.60156 29.3843 10.1519 29.3843 11.8608C29.3843 13.9604 29.0059 15.7427 28.249 17.2075C27.5166 18.6724 26.54 19.9419 25.3193 21.0161C24.123 22.0903 22.7559 23.0181 21.2178 23.7993C19.6797 24.5806 18.0928 25.3252 16.457 26.0332C14.8457 26.7412 13.271 27.4736 11.7329 28.2305C10.1948 28.9629 8.81543 29.8418 7.59473 30.8672C6.39844 31.8682 5.42188 33.0645 4.66504 34.4561C3.93262 35.8232 3.56641 37.4834 3.56641 39.4365H25.5391C26.1006 39.4365 26.5156 39.5708 26.7842 39.8394C27.0527 40.1079 27.187 40.4131 27.187 40.7549C27.187 41.0967 27.0527 41.4019 26.7842 41.6704C26.5156 41.939 26.1006 42.0732 25.5391 42.0732H2.35791C1.6499 42.0732 1.23486 41.8779 1.11279 41.4873C0.990723 41.0723 0.929688 40.3887 0.929688 39.4365C0.929688 37.2881 1.2959 35.4326 2.02832 33.8701C2.76074 32.3076 3.7251 30.9526 4.92139 29.8052C6.14209 28.6333 7.52148 27.6201 9.05957 26.7656C10.6221 25.9111 12.1968 25.1055 13.7837 24.3486C15.395 23.5918 16.9697 22.8472 18.5078 22.1147C20.0703 21.3579 21.4497 20.5156 22.646 19.5879C23.8667 18.6357 24.8433 17.5493 25.5757 16.3286C26.3081 15.0835 26.6743 13.5942 26.6743 11.8608C26.6743 10.2739 26.3813 8.91895 25.7954 7.7959C25.2339 6.67285 24.416 5.75732 23.3418 5.04932C22.292 4.34131 21.0103 3.82861 19.4966 3.51123C17.9829 3.16943 16.2739 2.99854 14.3696 2.99854Z" fill="#099278"/>
<path d="M64.5771 21.6021C64.5771 18.4282 64.3818 15.6694 63.9912 13.3257C63.625 10.9575 62.9414 9.00439 61.9404 7.46631C60.9639 5.90381 59.6089 4.74414 57.8755 3.9873C56.1665 3.23047 53.9814 2.85205 51.3203 2.85205C48.6836 2.85205 46.5107 3.23047 44.8018 3.9873C43.0928 4.74414 41.7378 5.90381 40.7368 7.46631C39.7358 9.00439 39.04 10.9575 38.6494 13.3257C38.2588 15.6694 38.0635 18.4282 38.0635 21.6021C38.0635 24.8003 38.2588 27.5713 38.6494 29.915C39.04 32.2588 39.7358 34.2119 40.7368 35.7744C41.7378 37.3125 43.0928 38.46 44.8018 39.2168C46.5107 39.9736 48.6836 40.3521 51.3203 40.3521C53.9814 40.3521 56.1665 39.9736 57.8755 39.2168C59.6089 38.46 60.9639 37.3125 61.9404 35.7744C62.9414 34.2119 63.625 32.2588 63.9912 29.915C64.3818 27.5713 64.5771 24.8003 64.5771 21.6021ZM35.2803 21.6021C35.2803 18.4282 35.4878 15.5352 35.9028 12.9229C36.3423 10.3105 37.1479 8.08887 38.3198 6.25781C39.4917 4.40234 41.1152 2.97412 43.1904 1.97314C45.29 0.947754 48 0.435059 51.3203 0.435059C54.6406 0.435059 57.3384 0.947754 59.4136 1.97314C61.5132 2.97412 63.1489 4.40234 64.3208 6.25781C65.4927 8.08887 66.2861 10.3105 66.7012 12.9229C67.1406 15.5352 67.3604 18.4282 67.3604 21.6021C67.3604 24.8003 67.1406 27.7056 66.7012 30.3179C66.2861 32.9058 65.4927 35.1274 64.3208 36.9829C63.1489 38.814 61.5132 40.2422 59.4136 41.2676C57.3384 42.2686 54.6406 42.769 51.3203 42.769C48 42.769 45.29 42.2686 43.1904 41.2676C41.1152 40.2422 39.4917 38.814 38.3198 36.9829C37.1479 35.1274 36.3423 32.9058 35.9028 30.3179C35.4878 27.7056 35.2803 24.8003 35.2803 21.6021Z" fill="#099278"/>
</svg>
