<svg width="52" height="48" viewBox="0 0 52 48" fill="none" xmlns="http://www.w3.org/2000/svg">
<path d="M51.7896 41.9199C42.0108 41.9199 40.7213 32.907 39.4318 24.2121C38.0348 14.7751 36.7453 5.97419 25.9993 5.97419C15.2533 5.97419 13.9638 14.8811 12.5668 24.2121C11.2773 32.907 9.98781 41.9199 0.208984 41.9199V39.163C7.0864 39.163 8.37591 33.4371 9.77289 23.894C11.0624 14.669 12.7818 3.21729 25.9993 3.21729C39.2168 3.21729 40.9362 14.669 42.2257 23.894C43.6227 33.4371 44.9122 39.163 51.7896 39.163V41.9199Z" fill="#099278"/>
<path d="M25.9987 47.858C21.9153 47.858 18.4766 44.5709 18.4766 40.4355H21.2705C21.2705 42.9804 23.3122 44.995 25.8913 44.995C28.4703 44.995 30.512 42.9804 30.512 40.4355H33.306C33.5209 44.5709 30.0822 47.858 25.9987 47.858Z" fill="#099278"/>
<path d="M0.208984 39.0569H51.7896V42.0258H0.208984V39.0569Z" fill="#099278"/>
<path d="M29.008 3.11129C29.008 4.80784 27.611 5.33802 25.9991 5.33802C24.3872 5.33802 22.9902 4.7018 22.9902 3.11129C22.9902 1.52077 24.3872 0.142334 25.9991 0.142334C27.611 0.142334 29.008 1.41473 29.008 3.11129Z" fill="#099278"/>
</svg>
