<svg width="56" height="56" viewBox="0 0 56 56" fill="none" xmlns="http://www.w3.org/2000/svg">
<path d="M44.7996 15.6799C44.7996 15.6799 16.355 15.6799 11.1996 15.6799C7.75449 15.6799 5.59961 19.0399 5.59961 21.2799V45.23C5.59961 48.086 7.91353 50.3999 10.7695 50.3999H45.2297C48.0846 50.3999 50.3996 48.086 50.3996 45.23V21.1075C50.3996 18.2548 47.6545 15.6799 44.7996 15.6799Z" stroke="#099278" stroke-width="2" stroke-miterlimit="10" stroke-linecap="round" stroke-linejoin="round"/>
<path d="M41.4396 12.3201V8.57707C41.4396 4.84635 40.6343 3.77003 36.0054 4.99083C32.605 5.88795 12.7082 11.404 12.7082 11.404C6.58073 13.7134 5.64553 15.679 5.64553 20.1579L5.59961 22.9075" stroke="#099278" stroke-width="2" stroke-miterlimit="10" stroke-linejoin="round"/>
<path d="M43.1226 35.84C41.5758 35.84 40.3203 34.5878 40.3203 33.0411C40.3203 31.4944 41.5758 30.24 43.1226 30.24C44.6648 30.24 45.9203 31.4944 45.9203 33.0411C45.9203 34.5878 44.6648 35.84 43.1226 35.84Z" fill="#099278"/>
</svg>
