<svg width="51" height="51" viewBox="0 0 51 51" fill="none" xmlns="http://www.w3.org/2000/svg">
<path d="M9.96094 10.7578C7.10414 10.7578 4.78125 8.43492 4.78125 5.57812C4.78125 2.72133 7.10414 0.398438 9.96094 0.398438C12.8177 0.398438 15.1406 2.72133 15.1406 5.57812C15.1406 8.43492 12.8177 10.7578 9.96094 10.7578ZM9.96094 2.78906C8.42297 2.78906 7.17188 4.04016 7.17188 5.57812C7.17188 7.11609 8.42297 8.36719 9.96094 8.36719C11.4989 8.36719 12.75 7.11609 12.75 5.57812C12.75 4.04016 11.4989 2.78906 9.96094 2.78906Z" fill="#099278"/>
<path d="M42.2344 30.6797C40.039 30.6797 38.25 28.8907 38.25 26.6953C38.25 24.4999 40.039 22.7109 42.2344 22.7109C44.4298 22.7109 46.2188 24.4999 46.2188 26.6953C46.2188 28.8907 44.4298 30.6797 42.2344 30.6797ZM42.2344 25.1016C41.3538 25.1016 40.6406 25.8148 40.6406 26.6953C40.6406 27.5759 41.3538 28.2891 42.2344 28.2891C43.1149 28.2891 43.8281 27.5759 43.8281 26.6953C43.8281 25.8148 43.1149 25.1016 42.2344 25.1016Z" fill="#099278"/>
<path d="M25.5 10.7578C22.6432 10.7578 20.3203 8.43492 20.3203 5.57812C20.3203 2.72133 22.6432 0.398438 25.5 0.398438C28.3568 0.398438 30.6797 2.72133 30.6797 5.57812C30.6797 8.43492 28.3568 10.7578 25.5 10.7578ZM25.5 2.78906C23.962 2.78906 22.7109 4.04016 22.7109 5.57812C22.7109 7.11609 23.962 8.36719 25.5 8.36719C27.038 8.36719 28.2891 7.11609 28.2891 5.57812C28.2891 4.04016 27.038 2.78906 25.5 2.78906Z" fill="#099278"/>
<path d="M50.1822 42.8161L49.481 38.9632C48.8515 35.5088 46.0863 32.899 42.6 32.4766C38.3327 31.9587 35.0416 28.6118 34.5994 24.3405L34.1651 20.1848C33.6989 15.7184 29.9655 12.3516 25.4751 12.3516C23.6184 12.3516 21.8454 12.9253 20.3472 14.013C19.8133 14.3995 19.6938 15.1486 20.0803 15.6825C20.4668 16.2164 21.2158 16.3359 21.7497 15.9495C22.8375 15.1605 24.1244 14.7422 25.4751 14.7422C28.7383 14.7422 31.4517 17.1886 31.7904 20.4319L32.2247 24.5876C32.5833 28.0221 34.4001 30.9745 37.0577 32.8392V39.0469C37.0577 40.5012 37.6633 41.82 38.6355 42.7603L39.0539 49.482C39.0937 50.1155 39.6197 50.6016 40.2452 50.6016C40.2691 50.6016 40.297 50.6016 40.3209 50.5976C40.9783 50.5577 41.4804 49.988 41.4405 49.3305L41.1138 44.0991C41.4764 44.1788 41.8509 44.2266 42.2414 44.2266H43.361L43.0422 49.3305C43.0024 49.988 43.5005 50.5577 44.1619 50.5976C44.1858 50.5976 44.2137 50.6016 44.2376 50.6016C44.8631 50.6016 45.389 50.1155 45.4289 49.482L45.8273 43.107C45.8472 42.7763 45.7317 42.4535 45.5046 42.2145C45.2775 41.9754 44.9547 41.8359 44.624 41.8359H42.2334C40.6955 41.8359 39.4444 40.5848 39.4444 39.0469V34.1302C40.3488 34.4848 41.309 34.7318 42.3131 34.8513C44.7555 35.1462 46.6919 36.971 47.1302 39.3895L47.8315 43.2424C47.9351 43.8202 48.4411 44.2226 49.0069 44.2226C49.0786 44.2226 49.1503 44.2146 49.222 44.2027C49.8715 44.0911 50.3018 43.4655 50.1822 42.8161Z" fill="#099278"/>
<path d="M30.6797 29.8828C30.0183 29.8828 29.4844 30.4167 29.4844 31.0781V37.8516H21.5156C21.5156 37.1902 20.9817 36.6562 20.3203 36.6562C19.6589 36.6562 19.125 37.1902 19.125 37.8516C19.125 39.1704 20.1968 40.2422 21.5156 40.2422H21.6033L22.3165 49.4979C22.3643 50.1234 22.8863 50.6016 23.5078 50.6016C23.5397 50.6016 23.5716 50.6016 23.5995 50.5976C24.2569 50.5458 24.7509 49.972 24.6991 49.3146L24.0019 40.2422H26.9981L26.3009 49.3146C26.2491 49.972 26.7431 50.5458 27.4005 50.5976C27.4324 50.6016 27.4643 50.6016 27.4922 50.6016C28.1098 50.6016 28.6357 50.1234 28.6835 49.4979L29.3967 40.2422H29.4844C30.8032 40.2422 31.875 39.1704 31.875 37.8516V31.0781C31.875 30.4167 31.3411 29.8828 30.6797 29.8828Z" fill="#099278"/>
<path d="M19.0254 20.1848C18.5592 15.7184 14.8259 12.3516 10.3355 12.3516C5.51437 12.3516 1.59375 16.2722 1.59375 21.0933V32.6719C1.59375 34.2298 2.59383 35.5605 3.98438 36.0546V47.0156C3.98438 48.9919 5.59406 50.6016 7.57031 50.6016C8.4907 50.6016 9.32742 50.2509 9.96094 49.6812C10.5945 50.2509 11.4312 50.6016 12.3516 50.6016C14.3278 50.6016 15.9375 48.9919 15.9375 47.0156V36.6562C15.9375 35.9948 15.4036 35.4609 14.7422 35.4609C14.0808 35.4609 13.5469 35.9948 13.5469 36.6562V47.0156C13.5469 47.673 13.009 48.2109 12.3516 48.2109C11.6941 48.2109 11.1562 47.673 11.1562 47.0156V32.6719C11.1562 32.0105 10.6223 31.4766 9.96094 31.4766C9.29953 31.4766 8.76562 32.0105 8.76562 32.6719V47.0156C8.76562 47.673 8.22773 48.2109 7.57031 48.2109C6.91289 48.2109 6.375 47.673 6.375 47.0156V35.0625C6.375 34.4011 5.84109 33.8672 5.17969 33.8672C4.52227 33.8672 3.98438 33.3293 3.98438 32.6719V21.0933C3.98438 17.591 6.8332 14.7422 10.3355 14.7422C13.5788 14.7422 16.2802 17.1607 16.6427 20.3761V32.6719C16.6427 33.3333 17.1766 33.8672 17.838 33.8672C18.4995 33.8672 19.0334 33.3333 19.0334 32.6719V20.3084C19.0334 20.2685 19.0294 20.2287 19.0254 20.1848Z" fill="#099278"/>
</svg>
