<svg width="53" height="53" viewBox="0 0 53 53" fill="none" xmlns="http://www.w3.org/2000/svg">
<path d="M51.3438 24.8438H38.9219V20.7031H39.75C39.9696 20.7031 40.1803 20.6159 40.3356 20.4606C40.4909 20.3053 40.5781 20.0946 40.5781 19.875V14.9062C40.5781 14.6866 40.4909 14.476 40.3356 14.3207C40.1803 14.1654 39.9696 14.0781 39.75 14.0781H33.125V12.4219H34.7812C35.0009 12.4219 35.2115 12.3346 35.3668 12.1793C35.5221 12.024 35.6094 11.8134 35.6094 11.5938L28.6094 1.65625C28.6094 1.43662 28.5221 1.22598 28.3668 1.07068C28.2115 0.915374 28.0009 0.828125 27.7812 0.828125H25.2188C24.9991 0.828125 24.7885 0.915374 24.6332 1.07068C24.4779 1.22598 24.3906 1.43662 24.3906 1.65625L17.3906 11.5938C17.3906 11.8134 17.4779 12.024 17.6332 12.1793C17.7885 12.3346 17.9991 12.4219 18.2188 12.4219H19.875V14.0781H13.25C13.0304 14.0781 12.8197 14.1654 12.6644 14.3207C12.5091 14.476 12.4219 14.6866 12.4219 14.9062V19.875C12.4219 20.0946 12.5091 20.3053 12.6644 20.4606C12.8197 20.6159 13.0304 20.7031 13.25 20.7031H14.0781V24.8438H1.65625C1.43662 24.8438 1.22598 24.931 1.07068 25.0863C0.915374 25.2416 0.828125 25.4522 0.828125 25.6719V30.6406C0.828125 30.8603 0.915374 31.0709 1.07068 31.2262C1.22598 31.3815 1.43662 31.4688 1.65625 31.4688H2.48438V51.3438C2.48438 51.5634 2.57162 51.774 2.72693 51.9293C2.88223 52.0846 3.09287 52.1719 3.3125 52.1719H49.6875C49.9071 52.1719 50.1178 52.0846 50.2731 51.9293C50.4284 51.774 50.5156 51.5634 50.5156 51.3438V31.4688H51.3438C51.5634 31.4688 51.774 31.3815 51.9293 31.2262C52.0846 31.0709 52.1719 30.8603 52.1719 30.6406V25.6719C52.1719 25.4522 52.0846 25.2416 51.9293 25.0863C51.774 24.931 51.5634 24.8438 51.3438 24.8438ZM26.0469 2.48438H26.9531L32.9531 10.7656H20.0469L26.0469 2.48438ZM21.5312 12.4219H31.4688V14.0781H21.5312V12.4219ZM14.0781 15.7344H38.9219V19.0469H14.0781V15.7344ZM37.2656 20.7031V50.5156H34.7812V39.75C34.7812 39.5304 34.694 39.3197 34.5387 39.1644C34.3834 39.0091 34.1728 38.9219 33.9531 38.9219H19.0469C18.8272 38.9219 18.6166 39.0091 18.4613 39.1644C18.306 39.3197 18.2188 39.5304 18.2188 39.75V50.5156H15.7344V20.7031H37.2656ZM27.3281 40.5781H33.125V50.5156H27.3281V40.5781ZM25.6719 50.5156H19.875V40.5781H25.6719V50.5156ZM2.48438 26.5H14.0781V29.8125H2.48438V26.5ZM14.0781 31.4688V45.5469H4.14062V31.4688H14.0781ZM4.14062 47.2031H14.0781V50.5156H4.14062V47.2031ZM38.9219 50.5156V47.2031H48.8594V50.5156H38.9219ZM48.8594 45.5469H38.9219V31.4688H48.8594V45.5469ZM50.5156 29.8125H38.9219V26.5H50.5156V29.8125Z" fill="#099278"/>
<path d="M18.2188 28.9844H24.8438C25.0634 28.9844 25.274 28.8971 25.4293 28.7418C25.5846 28.5865 25.6719 28.3759 25.6719 28.1562V23.1875C25.6719 22.9679 25.5846 22.7572 25.4293 22.6019C25.274 22.4466 25.0634 22.3594 24.8438 22.3594H18.2188C17.9991 22.3594 17.7885 22.4466 17.6332 22.6019C17.4779 22.7572 17.3906 22.9679 17.3906 23.1875V28.1562C17.3906 28.3759 17.4779 28.5865 17.6332 28.7418C17.7885 28.8971 17.9991 28.9844 18.2188 28.9844ZM19.0469 24.0156H24.0156V27.3281H19.0469V24.0156Z" fill="#099278"/>
<path d="M28.1562 28.9844H34.7812C35.0009 28.9844 35.2115 28.8971 35.3668 28.7418C35.5221 28.5865 35.6094 28.3759 35.6094 28.1562V23.1875C35.6094 22.9679 35.5221 22.7572 35.3668 22.6019C35.2115 22.4466 35.0009 22.3594 34.7812 22.3594H28.1562C27.9366 22.3594 27.726 22.4466 27.5707 22.6019C27.4154 22.7572 27.3281 22.9679 27.3281 23.1875V28.1562C27.3281 28.3759 27.4154 28.5865 27.5707 28.7418C27.726 28.8971 27.9366 28.9844 28.1562 28.9844ZM28.9844 24.0156H33.9531V27.3281H28.9844V24.0156Z" fill="#099278"/>
<path d="M28.1562 37.2656H34.7812C35.0009 37.2656 35.2115 37.1784 35.3668 37.0231C35.5221 36.8678 35.6094 36.6571 35.6094 36.4375V31.4688C35.6094 31.2491 35.5221 31.0385 35.3668 30.8832C35.2115 30.7279 35.0009 30.6406 34.7812 30.6406H28.1562C27.9366 30.6406 27.726 30.7279 27.5707 30.8832C27.4154 31.0385 27.3281 31.2491 27.3281 31.4688V36.4375C27.3281 36.6571 27.4154 36.8678 27.5707 37.0231C27.726 37.1784 27.9366 37.2656 28.1562 37.2656ZM28.9844 32.2969H33.9531V35.6094H28.9844V32.2969Z" fill="#099278"/>
<path d="M18.2188 37.2656H24.8438C25.0634 37.2656 25.274 37.1784 25.4293 37.0231C25.5846 36.8678 25.6719 36.6571 25.6719 36.4375V31.4688C25.6719 31.2491 25.5846 31.0385 25.4293 30.8832C25.274 30.7279 25.0634 30.6406 24.8438 30.6406H18.2188C17.9991 30.6406 17.7885 30.7279 17.6332 30.8832C17.4779 31.0385 17.3906 31.2491 17.3906 31.4688V36.4375C17.3906 36.6571 17.4779 36.8678 17.6332 37.0231C17.7885 37.1784 17.9991 37.2656 18.2188 37.2656ZM19.0469 32.2969H24.0156V35.6094H19.0469V32.2969Z" fill="#099278"/>
<path d="M41.4062 41.4062H46.375C46.5946 41.4062 46.8053 41.319 46.9606 41.1637C47.1159 41.0084 47.2031 40.7978 47.2031 40.5781V33.9531C47.2031 33.7335 47.1159 33.5229 46.9606 33.3676C46.8053 33.2122 46.5946 33.125 46.375 33.125H41.4062C41.1866 33.125 40.976 33.2122 40.8207 33.3676C40.6654 33.5229 40.5781 33.7335 40.5781 33.9531V40.5781C40.5781 40.7978 40.6654 41.0084 40.8207 41.1637C40.976 41.319 41.1866 41.4062 41.4062 41.4062ZM42.2344 34.7812H45.5469V39.75H42.2344V34.7812Z" fill="#099278"/>
<path d="M6.625 41.4062H11.5938C11.8134 41.4062 12.024 41.319 12.1793 41.1637C12.3346 41.0084 12.4219 40.7978 12.4219 40.5781V33.9531C12.4219 33.7335 12.3346 33.5229 12.1793 33.3676C12.024 33.2122 11.8134 33.125 11.5938 33.125H6.625C6.40537 33.125 6.19473 33.2122 6.03943 33.3676C5.88412 33.5229 5.79688 33.7335 5.79688 33.9531V40.5781C5.79688 40.7978 5.88412 41.0084 6.03943 41.1637C6.19473 41.319 6.40537 41.4062 6.625 41.4062ZM7.45312 34.7812H10.7656V39.75H7.45312V34.7812Z" fill="#099278"/>
</svg>
