<svg width="48" height="48" viewBox="0 0 48 48" fill="none" xmlns="http://www.w3.org/2000/svg">
<path d="M10.9594 20.7637L3.1875 12.9918L10.9594 5.21997L12.9553 7.21872L8.59031 11.5809H32.2791C35.3478 11.5841 38.2898 12.8048 40.4595 14.975C42.6291 17.1451 43.8491 20.0875 43.8516 23.1562H41.0288C41.0263 20.8364 40.1036 18.6123 38.4633 16.972C36.8229 15.3317 34.5989 14.409 32.2791 14.4065H8.59031L12.9553 18.7715L10.9594 20.7637ZM37.0406 27.2325L35.0447 29.2312L39.4097 33.5962H15.7209C13.4007 33.5937 11.1761 32.6707 9.53572 31.0298C7.89529 29.3888 6.97299 27.164 6.97125 24.8437H4.14844C4.15092 27.9124 5.37087 30.8548 7.54051 33.025C9.71016 35.1951 12.6522 36.4158 15.7209 36.419H39.4097L35.0447 40.7812L37.0406 42.7772L44.8125 35.0053L37.0406 27.2325Z" fill="#099278"/>
</svg>
