<svg width="61" height="61" viewBox="0 0 61 61" fill="none" xmlns="http://www.w3.org/2000/svg">
<path fill-rule="evenodd" clip-rule="evenodd" d="M51.3625 31.9174C51.3436 31.1288 50.6988 30.4999 49.9101 30.4999H30.4991V10.9683C30.4991 10.1695 29.8528 9.52026 29.0539 9.5159C23.2052 9.48686 17.2751 11.7351 12.8584 16.2346C4.1674 25.0883 4.29957 39.3333 13.1547 48.0243C22.0099 56.7168 36.2549 56.5832 44.9459 47.7295C49.3699 43.2213 51.502 37.7763 51.3625 31.9174ZM48.4389 33.4047C48.2123 37.9448 46.3518 42.1495 42.8719 45.6947C35.305 53.4039 22.9002 53.5201 15.1895 45.9518C7.47883 38.3834 7.36409 25.9801 14.9324 18.2694C18.4153 14.7198 22.9801 12.7823 27.5943 12.4671V31.9523C27.5943 32.754 28.245 33.4047 29.0467 33.4047H48.4389Z" fill="#099278"/>
<path fill-rule="evenodd" clip-rule="evenodd" d="M33.407 7.26196C33.0221 7.26196 32.6517 7.41446 32.3787 7.68751C32.1071 7.95911 31.9531 8.32946 31.9531 8.71434V27.5953C31.9531 28.397 32.6038 29.0477 33.4055 29.0477H52.2865C52.6771 29.0477 53.0504 28.8908 53.3235 28.612C53.5965 28.3331 53.7461 27.9569 53.7388 27.5662C53.6386 22.5003 51.4804 16.7809 47.5822 12.9524C43.6709 9.11375 38.4888 7.26777 33.407 7.26196ZM34.8579 10.2263C38.7299 10.5414 42.57 12.1042 45.5474 15.0264C48.5306 17.9558 50.3185 22.1765 50.7397 26.1429H34.8579V10.2263Z" fill="#099278"/>
</svg>
