<svg width="45" height="45" viewBox="0 0 45 45" fill="none" xmlns="http://www.w3.org/2000/svg">
<g clip-path="url(#clip0_197_7372)">
<path d="M44.4657 17.1845L23.372 0.309473C23.1226 0.109781 22.8126 0.000976563 22.4931 0.000976562C22.1736 0.000976562 21.8636 0.109781 21.6142 0.309473L0.520404 17.1845C0.292844 17.367 0.127698 17.6159 0.0478441 17.8965C-0.0320093 18.177 -0.0226157 18.4755 0.0747236 18.7506C0.172063 19.0256 0.352528 19.2635 0.591117 19.4314C0.829705 19.5993 1.1146 19.6888 1.40634 19.6876H4.21884V43.5938C4.21884 43.9668 4.367 44.3245 4.63072 44.5882C4.89445 44.8519 5.25213 45.0001 5.62509 45.0001H39.3751C39.7481 45.0001 40.1057 44.8519 40.3695 44.5882C40.6332 44.3245 40.7813 43.9668 40.7813 43.5938V19.6876H43.5938C43.8844 19.6859 44.1673 19.5943 44.4036 19.4253C44.64 19.2563 44.8182 19.0183 44.9137 18.7439C45.0093 18.4696 45.0175 18.1723 44.9373 17.8931C44.8571 17.6138 44.6923 17.3663 44.4657 17.1845ZM25.3126 42.1876H19.6876V30.9376H25.3126V42.1876ZM39.3751 16.8751C39.0021 16.8751 38.6444 17.0233 38.3807 17.287C38.117 17.5507 37.9688 17.9084 37.9688 18.2813V42.1876H28.1251V29.5313C28.1251 29.1584 27.9769 28.8007 27.7132 28.537C27.4495 28.2733 27.0918 28.1251 26.7188 28.1251H18.2813C17.9084 28.1251 17.5507 28.2733 17.287 28.537C17.0232 28.8007 16.8751 29.1584 16.8751 29.5313V42.1876H7.03134V19.6876H30.9376V16.8751H5.41415L22.5001 3.20635L39.586 16.8751H39.3751Z" fill="#099278"/>
</g>
<defs>
<clipPath id="clip0_197_7372">
<rect width="45" height="45" fill="white"/>
</clipPath>
</defs>
</svg>
