<svg width="36" height="49" viewBox="0 0 36 49" fill="none" xmlns="http://www.w3.org/2000/svg">
<g clip-path="url(#clip0_197_7366)">
<path d="M34.1314 20.4354H31.0935V13.1678C31.0935 5.91098 25.2228 0.00708008 18 0.00708008C10.7772 0.00708008 4.9065 5.91484 4.9065 13.1763V20.4354H1.90229C0.861347 20.4354 0 21.2658 0 22.3113V44.2697C0 46.8792 2.13125 49.0001 4.72941 49.0001H31.3043C33.9024 49.0001 36 46.8792 36 44.2697V22.3113C36 21.2658 35.1723 20.4354 34.1314 20.4354ZM8.67195 13.1763C8.67195 8.00239 12.8557 3.79303 18 3.79303C23.1443 3.79303 27.3281 7.99849 27.3281 13.1678V20.4354H8.67195V13.1763ZM32.2346 44.2697C32.2346 44.7917 31.8239 45.2182 31.3043 45.2182H4.72941C4.20978 45.2182 3.76545 44.7917 3.76545 44.2697V24.2173H32.2346V44.2697Z" fill="#099278"/>
<path d="M17.9999 40.3889C19.0409 40.3889 19.8826 39.5414 19.8826 38.4959V31.6813C19.8826 30.6358 19.0408 29.7883 17.9999 29.7883C16.959 29.7883 16.1172 30.6358 16.1172 31.6813V38.4959C16.1172 39.5414 16.959 40.3889 17.9999 40.3889Z" fill="#099278"/>
</g>
<defs>
<clipPath id="clip0_197_7366">
<rect width="36" height="49" fill="white"/>
</clipPath>
</defs>
</svg>
