<svg width="80" height="109" viewBox="0 0 80 109" fill="none" xmlns="http://www.w3.org/2000/svg">
<path d="M78.0418 136.718H18.5104C17.4263 136.718 16.5494 135.841 16.5494 134.757V47.1912H-11.0312C-12.1153 47.1912 -12.9922 46.3143 -12.9922 45.2301V36.2374C-12.9922 35.1532 -12.1153 34.2764 -11.0312 34.2764C-9.94698 34.2764 -9.07012 35.1532 -9.07012 36.2374V43.2691H18.5104C19.5946 43.2691 20.4715 44.146 20.4715 45.2301V132.796H76.078V109.689C76.078 108.605 76.9548 107.728 78.039 107.728C79.1232 107.728 80 108.605 80 109.689V134.757C80.0028 135.841 79.1232 136.718 78.0418 136.718Z" fill="#C5C5C5"/>
<path d="M78.0421 105.476C77.9132 105.476 77.7844 105.462 77.6583 105.436C77.5322 105.411 77.409 105.375 77.2913 105.324C77.1736 105.277 77.0588 105.215 76.9523 105.145C76.8459 105.072 76.745 104.991 76.6554 104.901C76.5629 104.812 76.4817 104.711 76.4116 104.602C76.3388 104.495 76.28 104.383 76.2295 104.265C76.1819 104.145 76.1427 104.022 76.1175 103.898C76.0923 103.772 76.0811 103.644 76.0811 103.515C76.0811 103.386 76.0923 103.257 76.1175 103.131C76.1427 103.005 76.1819 102.882 76.2295 102.764C76.28 102.646 76.3388 102.531 76.4116 102.425C76.4817 102.318 76.5629 102.218 76.6554 102.128C76.745 102.036 76.8459 101.954 76.9523 101.884C77.0588 101.814 77.1736 101.753 77.2913 101.702C77.409 101.655 77.5322 101.615 77.6583 101.59C77.9104 101.54 78.171 101.54 78.4231 101.59C78.5492 101.615 78.6724 101.655 78.7901 101.702C78.9077 101.753 79.0226 101.814 79.1291 101.884C79.2355 101.954 79.3364 102.036 79.426 102.128C79.5185 102.218 79.5997 102.318 79.6698 102.425C79.7426 102.531 79.8014 102.646 79.8518 102.764C79.8995 102.882 79.9387 103.005 79.9639 103.131C79.9891 103.257 80.0003 103.386 80.0003 103.515C80.0003 103.644 79.9891 103.772 79.9639 103.898C79.9387 104.022 79.8995 104.145 79.8518 104.265C79.8014 104.383 79.7426 104.495 79.6698 104.602C79.5997 104.711 79.5185 104.812 79.426 104.901C79.3364 104.991 79.2355 105.072 79.1291 105.145C79.0226 105.215 78.9077 105.277 78.7901 105.324C78.6724 105.375 78.5492 105.411 78.4231 105.436C78.297 105.462 78.1682 105.476 78.0421 105.476Z" fill="#C5C5C5"/>
<path d="M78.0418 97.965C76.9576 97.965 76.0808 97.0881 76.0808 96.004V4.76826H-9.07012V21.2353C-9.07012 22.3195 -9.94698 23.1964 -11.0312 23.1964C-12.1153 23.1964 -12.9922 22.3195 -12.9922 21.2353V2.80723C-12.9922 1.72305 -12.1153 0.846191 -11.0312 0.846191H78.039C79.1232 0.846191 80 1.72305 80 2.80723V96.004C80.0028 97.0881 79.1232 97.965 78.0418 97.965Z" fill="#C5C5C5"/>
<path d="M8.50608 70.7821H0.208104C-0.876067 70.7821 -1.75293 69.9052 -1.75293 68.821V60.523C-1.75293 59.4389 -0.876067 58.562 0.208104 58.562H8.50608C9.59025 58.562 10.4671 59.4389 10.4671 60.523V68.821C10.4671 69.9052 9.58745 70.7821 8.50608 70.7821ZM2.16914 66.86H6.54504V62.4841H2.16914V66.86Z" fill="#424242"/>
<path d="M8.50608 87.6634H0.208104C-0.876067 87.6634 -1.75293 86.7865 -1.75293 85.7024V77.4044C-1.75293 76.3202 -0.876067 75.4434 0.208104 75.4434H8.50608C9.59025 75.4434 10.4671 76.3202 10.4671 77.4044V85.7024C10.4671 86.7837 9.58745 87.6634 8.50608 87.6634ZM2.16914 83.7413H6.54504V79.3654H2.16914V83.7413Z" fill="#424242"/>
<path d="M8.50608 104.542H0.208104C-0.876067 104.542 -1.75293 103.665 -1.75293 102.581V94.2833C-1.75293 93.1991 -0.876067 92.3223 0.208104 92.3223H8.50608C9.59025 92.3223 10.4671 93.1991 10.4671 94.2833V102.581C10.4671 103.665 9.58745 104.542 8.50608 104.542ZM2.16914 100.62H6.54504V96.2443H2.16914V100.62Z" fill="#424242"/>
<path d="M39.6002 88.9807H31.588C30.5038 88.9807 29.627 88.1038 29.627 87.0196V79.0074C29.627 77.9232 30.5038 77.0464 31.588 77.0464H39.6002C40.6844 77.0464 41.5612 77.9232 41.5612 79.0074V87.0196C41.5612 88.1038 40.6816 88.9807 39.6002 88.9807ZM33.549 85.0586H37.6392V80.9685H33.549V85.0586Z" fill="#C5C5C5"/>
<path d="M39.6002 107.386H31.588C30.5038 107.386 29.627 106.51 29.627 105.425V97.4132C29.627 96.329 30.5038 95.4521 31.588 95.4521H39.6002C40.6844 95.4521 41.5612 96.329 41.5612 97.4132V105.425C41.5612 106.51 40.6816 107.386 39.6002 107.386ZM33.549 103.464H37.6392V99.3742H33.549V103.464Z" fill="#C5C5C5"/>
<path d="M8.71036 20.9297H0.437597C-0.646575 20.9297 -1.52344 20.0528 -1.52344 18.9687V10.6959C-1.52344 9.61173 -0.646575 8.73486 0.437597 8.73486H8.71036C9.79453 8.73486 10.6714 9.61173 10.6714 10.6959V18.9687C10.6714 20.0528 9.79453 20.9297 8.71036 20.9297ZM2.39863 17.0076H6.74932V12.6569H2.39863V17.0076Z" fill="#424242"/>
<path d="M28.3969 20.9297H20.1241C19.0399 20.9297 18.1631 20.0528 18.1631 18.9687V10.6959C18.1631 9.61173 19.0399 8.73486 20.1241 8.73486H28.3969C29.4811 8.73486 30.3579 9.61173 30.3579 10.6959V18.9687C30.3579 20.0528 29.4811 20.9297 28.3969 20.9297ZM22.0852 17.0076H26.4358V12.6569H22.0852V17.0076Z" fill="#424242"/>
<path d="M48.0805 20.9297H39.8077C38.7235 20.9297 37.8467 20.0528 37.8467 18.9687V10.6959C37.8467 9.61173 38.7235 8.73486 39.8077 8.73486H48.0805C49.1646 8.73486 50.0415 9.61173 50.0415 10.6959V18.9687C50.0415 20.0528 49.1646 20.9297 48.0805 20.9297ZM41.7687 17.0076H46.1194V12.6569H41.7687V17.0076Z" fill="#424242"/>
<path d="M69.0629 20.9297H60.7901C59.706 20.9297 58.8291 20.0528 58.8291 18.9687V10.6959C58.8291 9.61173 59.706 8.73486 60.7901 8.73486H69.0629C70.1471 8.73486 71.0239 9.61173 71.0239 10.6959V18.9687C71.0239 20.0528 70.1443 20.9297 69.0629 20.9297ZM62.7512 17.0076H67.1019V12.6569H62.7512V17.0076Z" fill="#424242"/>
<path d="M8.71036 38.1982H0.437597C-0.646575 38.1982 -1.52344 37.3214 -1.52344 36.2372V27.9645C-1.52344 26.8803 -0.646575 26.0034 0.437597 26.0034H8.71036C9.79453 26.0034 10.6714 26.8803 10.6714 27.9645V36.2372C10.6714 37.3214 9.79453 38.1982 8.71036 38.1982ZM2.39863 34.2762H6.74932V29.9255H2.39863V34.2762Z" fill="#C5C5C5"/>
<path d="M28.3969 38.1982H20.1241C19.0399 38.1982 18.1631 37.3214 18.1631 36.2372V27.9645C18.1631 26.8803 19.0399 26.0034 20.1241 26.0034H28.3969C29.4811 26.0034 30.3579 26.8803 30.3579 27.9645V36.2372C30.3579 37.3214 29.4811 38.1982 28.3969 38.1982ZM22.0852 34.2762H26.4358V29.9255H22.0852V34.2762Z" fill="#C5C5C5"/>
<path d="M48.0805 38.1982H39.8077C38.7235 38.1982 37.8467 37.3214 37.8467 36.2372V27.9645C37.8467 26.8803 38.7235 26.0034 39.8077 26.0034H48.0805C49.1646 26.0034 50.0415 26.8803 50.0415 27.9645V36.2372C50.0415 37.3214 49.1646 38.1982 48.0805 38.1982ZM41.7687 34.2762H46.1194V29.9255H41.7687V34.2762Z" fill="#C5C5C5"/>
<path d="M69.0629 38.1982H60.7901C59.706 38.1982 58.8291 37.3214 58.8291 36.2372V27.9645C58.8291 26.8803 59.706 26.0034 60.7901 26.0034H69.0629C70.1471 26.0034 71.0239 26.8803 71.0239 27.9645V36.2372C71.0239 37.3214 70.1443 38.1982 69.0629 38.1982ZM62.7512 34.2762H67.1019V29.9255H62.7512V34.2762Z" fill="#C5C5C5"/>
<path d="M28.3939 55.4667H25.3291C24.2449 55.4667 23.3681 54.5898 23.3681 53.5056C23.3681 52.4215 24.2449 51.5446 25.3291 51.5446H26.4329V47.1911H25.1134C24.0292 47.1911 23.1523 46.3142 23.1523 45.2301C23.1523 44.1459 24.0292 43.269 25.1134 43.269H28.3939C29.4781 43.269 30.3549 44.1459 30.3549 45.2301V53.5056C30.3549 54.5898 29.4781 55.4667 28.3939 55.4667Z" fill="#C5C5C5"/>
<path d="M48.0805 55.4668H39.8077C38.7235 55.4668 37.8467 54.5899 37.8467 53.5058V45.233C37.8467 44.1488 38.7235 43.272 39.8077 43.272H48.0805C49.1646 43.272 50.0415 44.1488 50.0415 45.233V53.5058C50.0415 54.5871 49.1646 55.4668 48.0805 55.4668ZM41.7687 51.5447H46.1194V47.194H41.7687V51.5447Z" fill="#C5C5C5"/>
<path d="M69.0629 55.4668H60.7901C59.706 55.4668 58.8291 54.5899 58.8291 53.5058V45.233C58.8291 44.1488 59.706 43.272 60.7901 43.272H69.0629C70.1471 43.272 71.0239 44.1488 71.0239 45.233V53.5058C71.0239 54.5871 70.1443 55.4668 69.0629 55.4668ZM62.7512 51.5447H67.1019V47.194H62.7512V51.5447Z" fill="#C5C5C5"/>
<path d="M69.0629 72.7319H60.7901C59.706 72.7319 58.8291 71.8551 58.8291 70.7709V62.4981C58.8291 61.414 59.706 60.5371 60.7901 60.5371H69.0629C70.1471 60.5371 71.0239 61.414 71.0239 62.4981V70.7709C71.0239 71.8551 70.1443 72.7319 69.0629 72.7319ZM62.7512 68.8099H67.1019V64.4592H62.7512V68.8099Z" fill="#C5C5C5"/>
<path d="M69.0629 90.0005H60.7901C59.706 90.0005 58.8291 89.1236 58.8291 88.0395V79.7667C58.8291 78.6825 59.706 77.8057 60.7901 77.8057H69.0629C70.1471 77.8057 71.0239 78.6825 71.0239 79.7667V88.0395C71.0239 89.1236 70.1443 90.0005 69.0629 90.0005ZM62.7512 86.0784H67.1019V81.7277H62.7512V86.0784Z" fill="#C5C5C5"/>
<path d="M69.0629 107.269H60.7901C59.706 107.269 58.8291 106.392 58.8291 105.308V97.0348C58.8291 95.9506 59.706 95.0737 60.7901 95.0737H69.0629C70.1471 95.0737 71.0239 95.9506 71.0239 97.0348V105.308C71.0239 106.389 70.1443 107.269 69.0629 107.269ZM62.7512 103.346H67.1019V98.9958H62.7512V103.346Z" fill="#C5C5C5"/>
<path d="M52.6777 136.718H18.5108C17.4267 136.718 16.5498 135.841 16.5498 134.757V68.0816C16.5498 66.9975 17.4267 66.1206 18.5108 66.1206H52.6749C53.759 66.1206 54.6359 66.9975 54.6359 68.0816C54.6359 69.1658 53.759 70.0427 52.6749 70.0427H20.4719V132.796H50.7138V76.4048C50.7138 75.3207 51.5907 74.4438 52.6749 74.4438C53.759 74.4438 54.6359 75.3207 54.6359 76.4048V134.757C54.6387 135.841 53.759 136.718 52.6777 136.718Z" fill="#424242"/>
<path d="M18.5104 136.718H-28.039C-29.1231 136.718 -30 135.841 -30 134.757V45.2301C-30 44.1459 -29.1231 43.269 -28.039 43.269H18.5104C19.5945 43.269 20.4714 44.1459 20.4714 45.2301V134.757C20.4714 135.841 19.5945 136.718 18.5104 136.718ZM-26.0779 132.796H16.5493V47.1911H-26.0779V132.796Z" fill="#C5C5C5"/>
</svg>
