<svg width="130" height="130" viewBox="0 0 130 130" fill="none" xmlns="http://www.w3.org/2000/svg">
<path d="M18.5986 48.2658L31.3793 105.403H47.1671L58.4442 100.892C76.0002 85.5001 75.2845 49.6191 58.4442 39.996C41.6038 30.3729 24.8637 41.4996 18.5986 48.2658Z" fill="#484848"/>
<path d="M127.232 131.916C127.855 131.916 128.452 131.669 128.892 131.229C129.332 130.789 129.579 130.192 129.579 129.569V120.18C129.579 119.558 129.332 118.96 128.892 118.52C128.452 118.08 127.855 117.833 127.232 117.833H120.19V113.138H122.538C123.16 113.138 123.757 112.891 124.197 112.451C124.638 112.011 124.885 111.414 124.885 110.791V92.0129C124.885 91.3903 124.638 90.7933 124.197 90.3531C123.757 89.9129 123.16 89.6656 122.538 89.6656H101.412V70.8875H108.454C108.763 70.8893 109.069 70.83 109.355 70.7132C109.641 70.5964 109.901 70.4243 110.121 70.2068L112.468 67.8595C113.967 68.5772 115.671 68.7418 117.279 68.3241C118.888 67.9064 120.297 66.9333 121.257 65.577C122.217 64.2207 122.667 62.5685 122.526 60.9127C122.385 59.2569 121.664 57.7041 120.489 56.5291C119.314 55.354 117.761 54.6324 116.105 54.4918C114.449 54.3513 112.797 54.8008 111.441 55.7609C110.084 56.7211 109.111 58.1299 108.694 59.7383C108.276 61.3468 108.441 63.0511 109.158 64.5498L107.492 66.2164H101.412V56.8039H103.76C104.271 56.8306 104.778 56.689 105.202 56.4008C105.626 56.1126 105.944 55.6936 106.107 55.2077L110.801 41.1241C110.918 40.7711 110.949 40.3955 110.892 40.0283C110.834 39.661 110.691 39.3125 110.473 39.0116L101.084 27.2752C100.864 27.0011 100.585 26.7798 100.268 26.6278C99.9513 26.4758 99.6043 26.3968 99.2528 26.3968C98.9013 26.3968 98.5544 26.4758 98.2375 26.6278C97.9206 26.7798 97.6419 27.0011 97.4219 27.2752L88.0329 39.0116C87.8148 39.3125 87.6712 39.661 87.6141 40.0283C87.557 40.3955 87.5879 40.7711 87.7043 41.1241L92.3988 55.2077C92.54 55.6347 92.8009 56.0121 93.1504 56.2951C93.5 56.5781 93.9235 56.7547 94.3705 56.8039H96.7178V66.1929H90.6383L88.9718 64.5264C89.6895 63.0276 89.8541 61.3233 89.4364 59.7149C89.0187 58.1065 88.0456 56.6976 86.6893 55.7374C85.333 54.7773 83.6808 54.3278 82.025 54.4684C80.3692 54.6089 78.8164 55.3306 77.6414 56.5056C76.4663 57.6807 75.7447 59.2334 75.6041 60.8892C75.4635 62.545 75.9131 64.1972 76.8732 65.5535C77.8334 66.9098 79.2422 67.8829 80.8506 68.3006C82.4591 68.7183 84.1634 68.5538 85.6621 67.836L88.0094 70.1833C88.2268 70.4051 88.486 70.5815 88.7721 70.7024C89.0582 70.8233 89.3654 70.8862 89.676 70.8875H96.7178V89.6656H71.1795C74.1108 83.8418 75.6229 77.4073 75.5924 70.8875C75.5924 50.1846 60.8515 33.3312 42.7306 33.3312C38.5805 33.3764 34.4833 34.2678 30.6895 35.9508C26.8957 37.6338 23.4851 40.073 20.6663 43.1193L12.2162 2.34727C12.2162 1.72473 11.9689 1.1277 11.5287 0.687499C11.0885 0.247301 10.4914 0 9.86889 0C9.24635 0 8.64932 0.247301 8.20912 0.687499C7.76892 1.1277 7.52162 1.72473 7.52162 2.34727L-15.9511 115.016C-16.0214 115.355 -16.0159 115.706 -15.9347 116.043C-15.8535 116.38 -15.6988 116.694 -15.4816 116.964C-15.2557 117.243 -14.9691 117.466 -14.6435 117.617C-14.318 117.767 -13.9623 117.841 -13.6038 117.833H7.52162V141.305H-15.9511V146H129.579V141.305H124.885V131.916H127.232ZM115.496 59.1511C115.96 59.1511 116.414 59.2888 116.8 59.5467C117.186 59.8046 117.487 60.1712 117.664 60.6001C117.842 61.029 117.889 61.501 117.798 61.9563C117.707 62.4117 117.484 62.8299 117.156 63.1582C116.827 63.4864 116.409 63.71 115.954 63.8006C115.499 63.8911 115.027 63.8446 114.598 63.667C114.169 63.4893 113.802 63.1885 113.544 62.8025C113.286 62.4165 113.149 61.9626 113.149 61.4984C113.149 60.8759 113.396 60.2788 113.836 59.8386C114.276 59.3984 114.873 59.1511 115.496 59.1511ZM99.065 32.3923L103.572 38.0257H94.5583L99.065 32.3923ZM92.9387 42.7203H105.191L102.07 52.1093H96.0605L92.9387 42.7203ZM80.2869 61.4984C80.2869 61.0341 80.4246 60.5803 80.6825 60.1943C80.9404 59.8083 81.307 59.5075 81.7359 59.3298C82.1648 59.1521 82.6368 59.1057 83.0921 59.1962C83.5474 59.2868 83.9657 59.5104 84.2939 59.8386C84.6222 60.1669 84.8458 60.5851 84.9363 61.0405C85.0269 61.4958 84.9804 61.9677 84.8027 62.3967C84.6251 62.8256 84.3242 63.1922 83.9382 63.4501C83.5522 63.708 83.0984 63.8457 82.6342 63.8457C82.0116 63.8457 81.4146 63.5984 80.9744 63.1582C80.5342 62.718 80.2869 62.1209 80.2869 61.4984ZM124.885 127.222H54.467V122.527H124.885V127.222ZM45.0779 108.444C48.3145 108.178 51.4859 107.385 54.467 106.096V110.791C54.467 111.414 54.7143 112.011 55.1544 112.451C55.5947 112.891 56.1917 113.138 56.8142 113.138H59.1615V117.833H52.1197C51.4972 117.833 50.9001 118.08 50.4599 118.52C50.0197 118.96 49.7724 119.558 49.7724 120.18V129.569C49.7724 130.192 50.0197 130.789 50.4599 131.229C50.9001 131.669 51.4972 131.916 52.1197 131.916H54.467V141.305H45.0779V108.444ZM101.412 117.833V113.138H106.107V117.833H101.412ZM96.7178 117.833H73.2451V113.138H96.7178V117.833ZM68.5506 117.833H63.856V113.138H68.5506V117.833ZM59.1615 131.916H63.856V141.305H59.1615V131.916ZM68.5506 131.916H96.7178V141.305H68.5506V131.916ZM101.412 131.916H110.801V141.305H101.412V131.916ZM115.496 117.833H110.801V113.138H115.496V117.833ZM120.19 108.444H59.1615V94.3601H120.19V108.444ZM42.7306 38.0257C58.2695 38.0257 70.8978 52.7666 70.8978 70.8875C70.9481 77.4947 69.1864 83.9894 65.8043 89.6656H56.8142C56.1917 89.6656 55.5947 89.9129 55.1544 90.3531C54.7143 90.7933 54.467 91.3903 54.467 92.0129V100.721C51.5554 102.282 48.3651 103.255 45.0779 103.585V81.2389L53.7862 72.554L50.4531 69.2209L45.0779 74.6196V66.1929H40.3834V86.3559L37.3554 83.3045L34.0223 86.6376L40.3834 92.9752V103.608C37.7821 103.346 35.2389 102.673 32.8486 101.613L21.8634 48.8936C24.2687 45.5963 27.4037 42.8998 31.0236 41.0145C34.6434 39.1293 38.6501 38.1064 42.7306 38.0257ZM-10.7166 113.138L9.86889 14.3183L30.4544 113.138H12.2162V85.9334L18.5772 79.5958L15.2441 76.2627L12.2162 79.3141V68.5402H7.52162V93.3978L2.14638 87.999L-1.18674 91.3322L7.52162 100.017V113.138H-10.7166ZM12.2162 117.833H33.3416C33.6922 117.834 34.0387 117.757 34.3555 117.606C34.6724 117.456 34.9515 117.237 35.1724 116.964C35.3896 116.694 35.5443 116.38 35.6255 116.043C35.7067 115.706 35.7123 115.355 35.6419 115.016L33.9753 107.059C36.0564 107.718 38.2066 108.136 40.3834 108.303V141.305H12.2162V117.833ZM120.19 141.305H115.496V131.916H120.19V141.305Z" fill="#C5C5C5"/>
</svg>
